<?xml version="1.0" encoding="UTF-8" standalone="no"?>
<!DOCTYPE svg PUBLIC "-//W3C//DTD SVG 1.1//EN"
 "http://www.w3.org/Graphics/SVG/1.1/DTD/svg11.dtd">
<!-- Generated by graphviz version 2.47.1 (0)
 -->
<!-- Title: snakemake_dag Pages: 1 -->
<svg width="10920pt" height="116pt"
 viewBox="0.00 0.00 10919.50 116.00" xmlns="http://www.w3.org/2000/svg" xmlns:xlink="http://www.w3.org/1999/xlink">
<g id="graph0" class="graph" transform="scale(1 1) rotate(0) translate(4 112)">
<title>snakemake_dag</title>
<polygon fill="white" stroke="transparent" points="-4,4 -4,-112 10915.5,-112 10915.5,4 -4,4"/>
<!-- 0 -->
<g id="node1" class="node">
<title>0</title>
<path fill="none" stroke="#59d856" stroke-width="2" d="M5448.5,-36C5448.5,-36 5418.5,-36 5418.5,-36 5412.5,-36 5406.5,-30 5406.5,-24 5406.5,-24 5406.5,-12 5406.5,-12 5406.5,-6 5412.5,0 5418.5,0 5418.5,0 5448.5,0 5448.5,0 5454.5,0 5460.5,-6 5460.5,-12 5460.5,-12 5460.5,-24 5460.5,-24 5460.5,-30 5454.5,-36 5448.5,-36"/>
<text text-anchor="middle" x="5433.5" y="-15.5" font-family="sans" font-size="10.00">all</text>
</g>
<!-- 1 -->
<g id="node2" class="node">
<title>1</title>
<path fill="none" stroke="#d85656" stroke-width="2" stroke-dasharray="5,2" d="M83,-108C83,-108 12,-108 12,-108 6,-108 0,-102 0,-96 0,-96 0,-84 0,-84 0,-78 6,-72 12,-72 12,-72 83,-72 83,-72 89,-72 95,-78 95,-84 95,-84 95,-96 95,-96 95,-102 89,-108 83,-108"/>
<text text-anchor="middle" x="47.5" y="-93" font-family="sans" font-size="10.00">hill_div</text>
<text text-anchor="middle" x="47.5" y="-82" font-family="sans" font-size="10.00">sample: LivMet_1</text>
</g>
<!-- 1&#45;&gt;0 -->
<g id="edge1" class="edge">
<title>1&#45;&gt;0</title>
<path fill="none" stroke="grey" stroke-width="2" d="M95.25,-73.53C98.03,-72.93 100.79,-72.42 103.5,-72 381.43,-29.33 4937.35,-19.91 5396.3,-19.07"/>
<polygon fill="grey" stroke="grey" stroke-width="2" points="5396.38,-22.57 5406.37,-19.05 5396.37,-15.57 5396.38,-22.57"/>
</g>
<!-- 2 -->
<g id="node3" class="node">
<title>2</title>
<path fill="none" stroke="#d85656" stroke-width="2" stroke-dasharray="5,2" d="M196,-108C196,-108 125,-108 125,-108 119,-108 113,-102 113,-96 113,-96 113,-84 113,-84 113,-78 119,-72 125,-72 125,-72 196,-72 196,-72 202,-72 208,-78 208,-84 208,-84 208,-96 208,-96 208,-102 202,-108 196,-108"/>
<text text-anchor="middle" x="160.5" y="-93" font-family="sans" font-size="10.00">hill_div</text>
<text text-anchor="middle" x="160.5" y="-82" font-family="sans" font-size="10.00">sample: LivMet_2</text>
</g>
<!-- 2&#45;&gt;0 -->
<g id="edge2" class="edge">
<title>2&#45;&gt;0</title>
<path fill="none" stroke="grey" stroke-width="2" d="M208.25,-73.53C211.03,-72.93 213.79,-72.42 216.5,-72 488.33,-30.24 4941.13,-20.01 5396.06,-19.07"/>
<polygon fill="grey" stroke="grey" stroke-width="2" points="5396.36,-22.57 5406.35,-19.05 5396.34,-15.57 5396.36,-22.57"/>
</g>
<!-- 3 -->
<g id="node4" class="node">
<title>3</title>
<path fill="none" stroke="#d85656" stroke-width="2" d="M309,-108C309,-108 238,-108 238,-108 232,-108 226,-102 226,-96 226,-96 226,-84 226,-84 226,-78 232,-72 238,-72 238,-72 309,-72 309,-72 315,-72 321,-78 321,-84 321,-84 321,-96 321,-96 321,-102 315,-108 309,-108"/>
<text text-anchor="middle" x="273.5" y="-93" font-family="sans" font-size="10.00">hill_div</text>
<text text-anchor="middle" x="273.5" y="-82" font-family="sans" font-size="10.00">sample: LivMet_3</text>
</g>
<!-- 3&#45;&gt;0 -->
<g id="edge3" class="edge">
<title>3&#45;&gt;0</title>
<path fill="none" stroke="grey" stroke-width="2" d="M321.25,-73.53C324.03,-72.93 326.79,-72.42 329.5,-72 595.3,-31.13 4947.35,-20.11 5396.19,-19.08"/>
<polygon fill="grey" stroke="grey" stroke-width="2" points="5396.36,-22.58 5406.35,-19.06 5396.34,-15.58 5396.36,-22.58"/>
</g>
<!-- 4 -->
<g id="node5" class="node">
<title>4</title>
<path fill="none" stroke="#d85656" stroke-width="2" d="M422,-108C422,-108 351,-108 351,-108 345,-108 339,-102 339,-96 339,-96 339,-84 339,-84 339,-78 345,-72 351,-72 351,-72 422,-72 422,-72 428,-72 434,-78 434,-84 434,-84 434,-96 434,-96 434,-102 428,-108 422,-108"/>
<text text-anchor="middle" x="386.5" y="-93" font-family="sans" font-size="10.00">hill_div</text>
<text text-anchor="middle" x="386.5" y="-82" font-family="sans" font-size="10.00">sample: LivMet_4</text>
</g>
<!-- 4&#45;&gt;0 -->
<g id="edge4" class="edge">
<title>4&#45;&gt;0</title>
<path fill="none" stroke="grey" stroke-width="2" d="M434.25,-73.53C437.03,-72.94 439.79,-72.42 442.5,-72 702.28,-32.03 4953.77,-20.21 5396.34,-19.09"/>
<polygon fill="grey" stroke="grey" stroke-width="2" points="5396.37,-22.59 5406.37,-19.07 5396.36,-15.59 5396.37,-22.59"/>
</g>
<!-- 5 -->
<g id="node6" class="node">
<title>5</title>
<path fill="none" stroke="#d85656" stroke-width="2" d="M535,-108C535,-108 464,-108 464,-108 458,-108 452,-102 452,-96 452,-96 452,-84 452,-84 452,-78 458,-72 464,-72 464,-72 535,-72 535,-72 541,-72 547,-78 547,-84 547,-84 547,-96 547,-96 547,-102 541,-108 535,-108"/>
<text text-anchor="middle" x="499.5" y="-93" font-family="sans" font-size="10.00">hill_div</text>
<text text-anchor="middle" x="499.5" y="-82" font-family="sans" font-size="10.00">sample: LivMet_5</text>
</g>
<!-- 5&#45;&gt;0 -->
<g id="edge5" class="edge">
<title>5&#45;&gt;0</title>
<path fill="none" stroke="grey" stroke-width="2" d="M547.25,-73.53C550.03,-72.94 552.79,-72.42 555.5,-72 809.2,-32.93 4958.34,-20.32 5396.19,-19.1"/>
<polygon fill="grey" stroke="grey" stroke-width="2" points="5396.41,-22.6 5406.4,-19.07 5396.39,-15.6 5396.41,-22.6"/>
</g>
<!-- 6 -->
<g id="node7" class="node">
<title>6</title>
<path fill="none" stroke="#d85656" stroke-width="2" d="M648,-108C648,-108 577,-108 577,-108 571,-108 565,-102 565,-96 565,-96 565,-84 565,-84 565,-78 571,-72 577,-72 577,-72 648,-72 648,-72 654,-72 660,-78 660,-84 660,-84 660,-96 660,-96 660,-102 654,-108 648,-108"/>
<text text-anchor="middle" x="612.5" y="-93" font-family="sans" font-size="10.00">hill_div</text>
<text text-anchor="middle" x="612.5" y="-82" font-family="sans" font-size="10.00">sample: LivMet_6</text>
</g>
<!-- 6&#45;&gt;0 -->
<g id="edge6" class="edge">
<title>6&#45;&gt;0</title>
<path fill="none" stroke="grey" stroke-width="2" d="M660.25,-73.53C663.03,-72.94 665.79,-72.42 668.5,-72 916.19,-33.82 4965.2,-20.43 5396.4,-19.11"/>
<polygon fill="grey" stroke="grey" stroke-width="2" points="5396.47,-22.61 5406.46,-19.08 5396.45,-15.61 5396.47,-22.61"/>
</g>
<!-- 7 -->
<g id="node8" class="node">
<title>7</title>
<path fill="none" stroke="#d85656" stroke-width="2" d="M761,-108C761,-108 690,-108 690,-108 684,-108 678,-102 678,-96 678,-96 678,-84 678,-84 678,-78 684,-72 690,-72 690,-72 761,-72 761,-72 767,-72 773,-78 773,-84 773,-84 773,-96 773,-96 773,-102 767,-108 761,-108"/>
<text text-anchor="middle" x="725.5" y="-93" font-family="sans" font-size="10.00">hill_div</text>
<text text-anchor="middle" x="725.5" y="-82" font-family="sans" font-size="10.00">sample: LivMet_7</text>
</g>
<!-- 7&#45;&gt;0 -->
<g id="edge7" class="edge">
<title>7&#45;&gt;0</title>
<path fill="none" stroke="grey" stroke-width="2" d="M773.25,-73.53C776.03,-72.94 778.79,-72.42 781.5,-72 1023.07,-34.73 4968.3,-20.55 5395.99,-19.12"/>
<polygon fill="grey" stroke="grey" stroke-width="2" points="5396.27,-22.62 5406.26,-19.09 5396.24,-15.62 5396.27,-22.62"/>
</g>
<!-- 8 -->
<g id="node9" class="node">
<title>8</title>
<path fill="none" stroke="#d85656" stroke-width="2" d="M874,-108C874,-108 803,-108 803,-108 797,-108 791,-102 791,-96 791,-96 791,-84 791,-84 791,-78 797,-72 803,-72 803,-72 874,-72 874,-72 880,-72 886,-78 886,-84 886,-84 886,-96 886,-96 886,-102 880,-108 874,-108"/>
<text text-anchor="middle" x="838.5" y="-93" font-family="sans" font-size="10.00">hill_div</text>
<text text-anchor="middle" x="838.5" y="-82" font-family="sans" font-size="10.00">sample: LivMet_8</text>
</g>
<!-- 8&#45;&gt;0 -->
<g id="edge8" class="edge">
<title>8&#45;&gt;0</title>
<path fill="none" stroke="grey" stroke-width="2" d="M886.25,-73.53C889.03,-72.94 891.79,-72.42 894.5,-72 1130.08,-35.62 4975.66,-20.66 5396.25,-19.13"/>
<polygon fill="grey" stroke="grey" stroke-width="2" points="5396.37,-22.63 5406.36,-19.1 5396.35,-15.63 5396.37,-22.63"/>
</g>
<!-- 9 -->
<g id="node10" class="node">
<title>9</title>
<path fill="none" stroke="#d85656" stroke-width="2" d="M987,-108C987,-108 916,-108 916,-108 910,-108 904,-102 904,-96 904,-96 904,-84 904,-84 904,-78 910,-72 916,-72 916,-72 987,-72 987,-72 993,-72 999,-78 999,-84 999,-84 999,-96 999,-96 999,-102 993,-108 987,-108"/>
<text text-anchor="middle" x="951.5" y="-93" font-family="sans" font-size="10.00">hill_div</text>
<text text-anchor="middle" x="951.5" y="-82" font-family="sans" font-size="10.00">sample: LivMet_9</text>
</g>
<!-- 9&#45;&gt;0 -->
<g id="edge9" class="edge">
<title>9&#45;&gt;0</title>
<path fill="none" stroke="grey" stroke-width="2" d="M999.17,-73.73C1002.31,-73.06 1005.44,-72.47 1008.5,-72 1238.07,-37.09 4981.48,-20.84 5396.25,-19.15"/>
<polygon fill="grey" stroke="grey" stroke-width="2" points="5396.51,-22.65 5406.5,-19.11 5396.48,-15.65 5396.51,-22.65"/>
</g>
<!-- 10 -->
<g id="node11" class="node">
<title>10</title>
<path fill="none" stroke="#d85656" stroke-width="2" d="M1105.5,-108C1105.5,-108 1029.5,-108 1029.5,-108 1023.5,-108 1017.5,-102 1017.5,-96 1017.5,-96 1017.5,-84 1017.5,-84 1017.5,-78 1023.5,-72 1029.5,-72 1029.5,-72 1105.5,-72 1105.5,-72 1111.5,-72 1117.5,-78 1117.5,-84 1117.5,-84 1117.5,-96 1117.5,-96 1117.5,-102 1111.5,-108 1105.5,-108"/>
<text text-anchor="middle" x="1067.5" y="-93" font-family="sans" font-size="10.00">hill_div</text>
<text text-anchor="middle" x="1067.5" y="-82" font-family="sans" font-size="10.00">sample: LivMet_10</text>
</g>
<!-- 10&#45;&gt;0 -->
<g id="edge10" class="edge">
<title>10&#45;&gt;0</title>
<path fill="none" stroke="grey" stroke-width="2" d="M1117.51,-73.6C1120.53,-72.98 1123.55,-72.44 1126.5,-72 1349.93,-39.05 4987.96,-21.09 5396.31,-19.17"/>
<polygon fill="grey" stroke="grey" stroke-width="2" points="5396.42,-22.67 5406.41,-19.12 5396.39,-15.67 5396.42,-22.67"/>
</g>
<!-- 11 -->
<g id="node12" class="node">
<title>11</title>
<path fill="none" stroke="#d85656" stroke-width="2" d="M1223.5,-108C1223.5,-108 1147.5,-108 1147.5,-108 1141.5,-108 1135.5,-102 1135.5,-96 1135.5,-96 1135.5,-84 1135.5,-84 1135.5,-78 1141.5,-72 1147.5,-72 1147.5,-72 1223.5,-72 1223.5,-72 1229.5,-72 1235.5,-78 1235.5,-84 1235.5,-84 1235.5,-96 1235.5,-96 1235.5,-102 1229.5,-108 1223.5,-108"/>
<text text-anchor="middle" x="1185.5" y="-93" font-family="sans" font-size="10.00">hill_div</text>
<text text-anchor="middle" x="1185.5" y="-82" font-family="sans" font-size="10.00">sample: LivMet_11</text>
</g>
<!-- 11&#45;&gt;0 -->
<g id="edge11" class="edge">
<title>11&#45;&gt;0</title>
<path fill="none" stroke="grey" stroke-width="2" d="M1235.51,-73.6C1238.53,-72.98 1241.55,-72.44 1244.5,-72 1461.58,-39.95 4992.98,-21.22 5396.11,-19.19"/>
<polygon fill="grey" stroke="grey" stroke-width="2" points="5396.37,-22.68 5406.35,-19.13 5396.33,-15.68 5396.37,-22.68"/>
</g>
<!-- 12 -->
<g id="node13" class="node">
<title>12</title>
<path fill="none" stroke="#d85656" stroke-width="2" d="M1341.5,-108C1341.5,-108 1265.5,-108 1265.5,-108 1259.5,-108 1253.5,-102 1253.5,-96 1253.5,-96 1253.5,-84 1253.5,-84 1253.5,-78 1259.5,-72 1265.5,-72 1265.5,-72 1341.5,-72 1341.5,-72 1347.5,-72 1353.5,-78 1353.5,-84 1353.5,-84 1353.5,-96 1353.5,-96 1353.5,-102 1347.5,-108 1341.5,-108"/>
<text text-anchor="middle" x="1303.5" y="-93" font-family="sans" font-size="10.00">hill_div</text>
<text text-anchor="middle" x="1303.5" y="-82" font-family="sans" font-size="10.00">sample: LivMet_12</text>
</g>
<!-- 12&#45;&gt;0 -->
<g id="edge12" class="edge">
<title>12&#45;&gt;0</title>
<path fill="none" stroke="grey" stroke-width="2" d="M1353.51,-73.6C1356.53,-72.98 1359.55,-72.44 1362.5,-72 1573.3,-40.84 5000.11,-21.35 5396.25,-19.2"/>
<polygon fill="grey" stroke="grey" stroke-width="2" points="5396.34,-22.7 5406.33,-19.14 5396.31,-15.7 5396.34,-22.7"/>
</g>
<!-- 13 -->
<g id="node14" class="node">
<title>13</title>
<path fill="none" stroke="#d85656" stroke-width="2" d="M1459.5,-108C1459.5,-108 1383.5,-108 1383.5,-108 1377.5,-108 1371.5,-102 1371.5,-96 1371.5,-96 1371.5,-84 1371.5,-84 1371.5,-78 1377.5,-72 1383.5,-72 1383.5,-72 1459.5,-72 1459.5,-72 1465.5,-72 1471.5,-78 1471.5,-84 1471.5,-84 1471.5,-96 1471.5,-96 1471.5,-102 1465.5,-108 1459.5,-108"/>
<text text-anchor="middle" x="1421.5" y="-93" font-family="sans" font-size="10.00">hill_div</text>
<text text-anchor="middle" x="1421.5" y="-82" font-family="sans" font-size="10.00">sample: LivMet_13</text>
</g>
<!-- 13&#45;&gt;0 -->
<g id="edge13" class="edge">
<title>13&#45;&gt;0</title>
<path fill="none" stroke="grey" stroke-width="2" d="M1471.51,-73.61C1474.53,-72.98 1477.55,-72.44 1480.5,-72 1888.72,-11.57 5018.76,-17.91 5396.27,-18.89"/>
<polygon fill="grey" stroke="grey" stroke-width="2" points="5396.38,-22.39 5406.39,-18.92 5396.4,-15.39 5396.38,-22.39"/>
</g>
<!-- 14 -->
<g id="node15" class="node">
<title>14</title>
<path fill="none" stroke="#d85656" stroke-width="2" d="M1577.5,-108C1577.5,-108 1501.5,-108 1501.5,-108 1495.5,-108 1489.5,-102 1489.5,-96 1489.5,-96 1489.5,-84 1489.5,-84 1489.5,-78 1495.5,-72 1501.5,-72 1501.5,-72 1577.5,-72 1577.5,-72 1583.5,-72 1589.5,-78 1589.5,-84 1589.5,-84 1589.5,-96 1589.5,-96 1589.5,-102 1583.5,-108 1577.5,-108"/>
<text text-anchor="middle" x="1539.5" y="-93" font-family="sans" font-size="10.00">hill_div</text>
<text text-anchor="middle" x="1539.5" y="-82" font-family="sans" font-size="10.00">sample: LivMet_14</text>
</g>
<!-- 14&#45;&gt;0 -->
<g id="edge14" class="edge">
<title>14&#45;&gt;0</title>
<path fill="none" stroke="grey" stroke-width="2" d="M1589.51,-73.61C1592.54,-72.98 1595.55,-72.44 1598.5,-72 1994.12,-13.35 5024.95,-18.1 5396.26,-18.91"/>
<polygon fill="grey" stroke="grey" stroke-width="2" points="5396.45,-22.41 5406.46,-18.93 5396.47,-15.41 5396.45,-22.41"/>
</g>
<!-- 15 -->
<g id="node16" class="node">
<title>15</title>
<path fill="none" stroke="#d85656" stroke-width="2" d="M1695.5,-108C1695.5,-108 1619.5,-108 1619.5,-108 1613.5,-108 1607.5,-102 1607.5,-96 1607.5,-96 1607.5,-84 1607.5,-84 1607.5,-78 1613.5,-72 1619.5,-72 1619.5,-72 1695.5,-72 1695.5,-72 1701.5,-72 1707.5,-78 1707.5,-84 1707.5,-84 1707.5,-96 1707.5,-96 1707.5,-102 1701.5,-108 1695.5,-108"/>
<text text-anchor="middle" x="1657.5" y="-93" font-family="sans" font-size="10.00">hill_div</text>
<text text-anchor="middle" x="1657.5" y="-82" font-family="sans" font-size="10.00">sample: LivMet_15</text>
</g>
<!-- 15&#45;&gt;0 -->
<g id="edge15" class="edge">
<title>15&#45;&gt;0</title>
<path fill="none" stroke="grey" stroke-width="2" d="M1707.51,-73.61C1710.54,-72.98 1713.55,-72.44 1716.5,-72 2099.54,-15.13 5031.47,-18.31 5396.28,-18.93"/>
<polygon fill="grey" stroke="grey" stroke-width="2" points="5396.31,-22.43 5406.32,-18.95 5396.33,-15.43 5396.31,-22.43"/>
</g>
<!-- 16 -->
<g id="node17" class="node">
<title>16</title>
<path fill="none" stroke="#d85656" stroke-width="2" d="M1813.5,-108C1813.5,-108 1737.5,-108 1737.5,-108 1731.5,-108 1725.5,-102 1725.5,-96 1725.5,-96 1725.5,-84 1725.5,-84 1725.5,-78 1731.5,-72 1737.5,-72 1737.5,-72 1813.5,-72 1813.5,-72 1819.5,-72 1825.5,-78 1825.5,-84 1825.5,-84 1825.5,-96 1825.5,-96 1825.5,-102 1819.5,-108 1813.5,-108"/>
<text text-anchor="middle" x="1775.5" y="-93" font-family="sans" font-size="10.00">hill_div</text>
<text text-anchor="middle" x="1775.5" y="-82" font-family="sans" font-size="10.00">sample: LivMet_16</text>
</g>
<!-- 16&#45;&gt;0 -->
<g id="edge16" class="edge">
<title>16&#45;&gt;0</title>
<path fill="none" stroke="grey" stroke-width="2" d="M1825.51,-73.61C1828.54,-72.99 1831.55,-72.44 1834.5,-72 2204.9,-16.92 5036.98,-18.52 5396.1,-18.95"/>
<polygon fill="grey" stroke="grey" stroke-width="2" points="5396.22,-22.45 5406.23,-18.96 5396.23,-15.45 5396.22,-22.45"/>
</g>
<!-- 17 -->
<g id="node18" class="node">
<title>17</title>
<path fill="none" stroke="#d85656" stroke-width="2" d="M1931.5,-108C1931.5,-108 1855.5,-108 1855.5,-108 1849.5,-108 1843.5,-102 1843.5,-96 1843.5,-96 1843.5,-84 1843.5,-84 1843.5,-78 1849.5,-72 1855.5,-72 1855.5,-72 1931.5,-72 1931.5,-72 1937.5,-72 1943.5,-78 1943.5,-84 1943.5,-84 1943.5,-96 1943.5,-96 1943.5,-102 1937.5,-108 1931.5,-108"/>
<text text-anchor="middle" x="1893.5" y="-93" font-family="sans" font-size="10.00">hill_div</text>
<text text-anchor="middle" x="1893.5" y="-82" font-family="sans" font-size="10.00">sample: LivMet_17</text>
</g>
<!-- 17&#45;&gt;0 -->
<g id="edge17" class="edge">
<title>17&#45;&gt;0</title>
<path fill="none" stroke="grey" stroke-width="2" d="M1943.51,-73.61C1946.54,-72.99 1949.55,-72.44 1952.5,-72 2310.28,-18.7 5042.98,-18.74 5395.98,-18.97"/>
<polygon fill="grey" stroke="grey" stroke-width="2" points="5396.18,-22.47 5406.18,-18.97 5396.18,-15.47 5396.18,-22.47"/>
</g>
<!-- 18 -->
<g id="node19" class="node">
<title>18</title>
<path fill="none" stroke="#d85656" stroke-width="2" d="M2049.5,-108C2049.5,-108 1973.5,-108 1973.5,-108 1967.5,-108 1961.5,-102 1961.5,-96 1961.5,-96 1961.5,-84 1961.5,-84 1961.5,-78 1967.5,-72 1973.5,-72 1973.5,-72 2049.5,-72 2049.5,-72 2055.5,-72 2061.5,-78 2061.5,-84 2061.5,-84 2061.5,-96 2061.5,-96 2061.5,-102 2055.5,-108 2049.5,-108"/>
<text text-anchor="middle" x="2011.5" y="-93" font-family="sans" font-size="10.00">hill_div</text>
<text text-anchor="middle" x="2011.5" y="-82" font-family="sans" font-size="10.00">sample: LivMet_18</text>
</g>
<!-- 18&#45;&gt;0 -->
<g id="edge18" class="edge">
<title>18&#45;&gt;0</title>
<path fill="none" stroke="grey" stroke-width="2" d="M2061.51,-73.61C2064.54,-72.99 2067.55,-72.44 2070.5,-72 2415.7,-20.48 5049.46,-18.96 5395.93,-18.99"/>
<polygon fill="grey" stroke="grey" stroke-width="2" points="5396.18,-22.49 5406.18,-18.99 5396.18,-15.49 5396.18,-22.49"/>
</g>
<!-- 19 -->
<g id="node20" class="node">
<title>19</title>
<path fill="none" stroke="#d85656" stroke-width="2" d="M2167.5,-108C2167.5,-108 2091.5,-108 2091.5,-108 2085.5,-108 2079.5,-102 2079.5,-96 2079.5,-96 2079.5,-84 2079.5,-84 2079.5,-78 2085.5,-72 2091.5,-72 2091.5,-72 2167.5,-72 2167.5,-72 2173.5,-72 2179.5,-78 2179.5,-84 2179.5,-84 2179.5,-96 2179.5,-96 2179.5,-102 2173.5,-108 2167.5,-108"/>
<text text-anchor="middle" x="2129.5" y="-93" font-family="sans" font-size="10.00">hill_div</text>
<text text-anchor="middle" x="2129.5" y="-82" font-family="sans" font-size="10.00">sample: LivMet_19</text>
</g>
<!-- 19&#45;&gt;0 -->
<g id="edge19" class="edge">
<title>19&#45;&gt;0</title>
<path fill="none" stroke="grey" stroke-width="2" d="M2179.51,-73.62C2182.54,-72.99 2185.55,-72.44 2188.5,-72 2521.23,-22.24 5057.68,-19.2 5396.2,-19.01"/>
<polygon fill="grey" stroke="grey" stroke-width="2" points="5396.23,-22.51 5406.23,-19.01 5396.23,-15.51 5396.23,-22.51"/>
</g>
<!-- 20 -->
<g id="node21" class="node">
<title>20</title>
<path fill="none" stroke="#d85656" stroke-width="2" d="M2285.5,-108C2285.5,-108 2209.5,-108 2209.5,-108 2203.5,-108 2197.5,-102 2197.5,-96 2197.5,-96 2197.5,-84 2197.5,-84 2197.5,-78 2203.5,-72 2209.5,-72 2209.5,-72 2285.5,-72 2285.5,-72 2291.5,-72 2297.5,-78 2297.5,-84 2297.5,-84 2297.5,-96 2297.5,-96 2297.5,-102 2291.5,-108 2285.5,-108"/>
<text text-anchor="middle" x="2247.5" y="-93" font-family="sans" font-size="10.00">hill_div</text>
<text text-anchor="middle" x="2247.5" y="-82" font-family="sans" font-size="10.00">sample: LivMet_20</text>
</g>
<!-- 20&#45;&gt;0 -->
<g id="edge20" class="edge">
<title>20&#45;&gt;0</title>
<path fill="none" stroke="grey" stroke-width="2" d="M2297.51,-73.62C2300.54,-72.99 2303.55,-72.44 2306.5,-72 2626.71,-24.02 5065.08,-19.44 5396.29,-19.04"/>
<polygon fill="grey" stroke="grey" stroke-width="2" points="5396.34,-22.54 5406.33,-19.02 5396.33,-15.54 5396.34,-22.54"/>
</g>
<!-- 21 -->
<g id="node22" class="node">
<title>21</title>
<path fill="none" stroke="#d85656" stroke-width="2" d="M2403.5,-108C2403.5,-108 2327.5,-108 2327.5,-108 2321.5,-108 2315.5,-102 2315.5,-96 2315.5,-96 2315.5,-84 2315.5,-84 2315.5,-78 2321.5,-72 2327.5,-72 2327.5,-72 2403.5,-72 2403.5,-72 2409.5,-72 2415.5,-78 2415.5,-84 2415.5,-84 2415.5,-96 2415.5,-96 2415.5,-102 2409.5,-108 2403.5,-108"/>
<text text-anchor="middle" x="2365.5" y="-93" font-family="sans" font-size="10.00">hill_div</text>
<text text-anchor="middle" x="2365.5" y="-82" font-family="sans" font-size="10.00">sample: LivMet_21</text>
</g>
<!-- 21&#45;&gt;0 -->
<g id="edge21" class="edge">
<title>21&#45;&gt;0</title>
<path fill="none" stroke="grey" stroke-width="2" d="M2415.51,-73.62C2418.54,-72.99 2421.55,-72.44 2424.5,-72 2732.15,-25.8 5071.8,-19.69 5396.22,-19.06"/>
<polygon fill="grey" stroke="grey" stroke-width="2" points="5396.5,-22.56 5406.49,-19.04 5396.48,-15.56 5396.5,-22.56"/>
</g>
<!-- 22 -->
<g id="node23" class="node">
<title>22</title>
<path fill="none" stroke="#d85656" stroke-width="2" d="M2521.5,-108C2521.5,-108 2445.5,-108 2445.5,-108 2439.5,-108 2433.5,-102 2433.5,-96 2433.5,-96 2433.5,-84 2433.5,-84 2433.5,-78 2439.5,-72 2445.5,-72 2445.5,-72 2521.5,-72 2521.5,-72 2527.5,-72 2533.5,-78 2533.5,-84 2533.5,-84 2533.5,-96 2533.5,-96 2533.5,-102 2527.5,-108 2521.5,-108"/>
<text text-anchor="middle" x="2483.5" y="-93" font-family="sans" font-size="10.00">hill_div</text>
<text text-anchor="middle" x="2483.5" y="-82" font-family="sans" font-size="10.00">sample: LivMet_22</text>
</g>
<!-- 22&#45;&gt;0 -->
<g id="edge22" class="edge">
<title>22&#45;&gt;0</title>
<path fill="none" stroke="grey" stroke-width="2" d="M2533.51,-73.62C2536.54,-72.99 2539.55,-72.44 2542.5,-72 2837.61,-27.57 5078.99,-19.95 5396.21,-19.09"/>
<polygon fill="grey" stroke="grey" stroke-width="2" points="5396.28,-22.59 5406.27,-19.07 5396.26,-15.59 5396.28,-22.59"/>
</g>
<!-- 23 -->
<g id="node24" class="node">
<title>23</title>
<path fill="none" stroke="#d85656" stroke-width="2" d="M2639.5,-108C2639.5,-108 2563.5,-108 2563.5,-108 2557.5,-108 2551.5,-102 2551.5,-96 2551.5,-96 2551.5,-84 2551.5,-84 2551.5,-78 2557.5,-72 2563.5,-72 2563.5,-72 2639.5,-72 2639.5,-72 2645.5,-72 2651.5,-78 2651.5,-84 2651.5,-84 2651.5,-96 2651.5,-96 2651.5,-102 2645.5,-108 2639.5,-108"/>
<text text-anchor="middle" x="2601.5" y="-93" font-family="sans" font-size="10.00">hill_div</text>
<text text-anchor="middle" x="2601.5" y="-82" font-family="sans" font-size="10.00">sample: LivMet_23</text>
</g>
<!-- 23&#45;&gt;0 -->
<g id="edge23" class="edge">
<title>23&#45;&gt;0</title>
<path fill="none" stroke="grey" stroke-width="2" d="M2651.51,-73.63C2654.54,-73 2657.55,-72.45 2660.5,-72 2942.97,-29.36 5084.64,-20.23 5395.84,-19.12"/>
<polygon fill="grey" stroke="grey" stroke-width="2" points="5396.14,-22.62 5406.13,-19.09 5396.12,-15.62 5396.14,-22.62"/>
</g>
<!-- 24 -->
<g id="node25" class="node">
<title>24</title>
<path fill="none" stroke="#d85656" stroke-width="2" d="M2757.5,-108C2757.5,-108 2681.5,-108 2681.5,-108 2675.5,-108 2669.5,-102 2669.5,-96 2669.5,-96 2669.5,-84 2669.5,-84 2669.5,-78 2675.5,-72 2681.5,-72 2681.5,-72 2757.5,-72 2757.5,-72 2763.5,-72 2769.5,-78 2769.5,-84 2769.5,-84 2769.5,-96 2769.5,-96 2769.5,-102 2763.5,-108 2757.5,-108"/>
<text text-anchor="middle" x="2719.5" y="-93" font-family="sans" font-size="10.00">hill_div</text>
<text text-anchor="middle" x="2719.5" y="-82" font-family="sans" font-size="10.00">sample: LivMet_24</text>
</g>
<!-- 24&#45;&gt;0 -->
<g id="edge24" class="edge">
<title>24&#45;&gt;0</title>
<path fill="none" stroke="grey" stroke-width="2" d="M2769.51,-73.63C2772.54,-73 2775.55,-72.45 2778.5,-72 3048.52,-31.12 5093.2,-20.51 5396.06,-19.16"/>
<polygon fill="grey" stroke="grey" stroke-width="2" points="5396.49,-22.66 5406.48,-19.11 5396.46,-15.66 5396.49,-22.66"/>
</g>
<!-- 25 -->
<g id="node26" class="node">
<title>25</title>
<path fill="none" stroke="#d85656" stroke-width="2" d="M2875.5,-108C2875.5,-108 2799.5,-108 2799.5,-108 2793.5,-108 2787.5,-102 2787.5,-96 2787.5,-96 2787.5,-84 2787.5,-84 2787.5,-78 2793.5,-72 2799.5,-72 2799.5,-72 2875.5,-72 2875.5,-72 2881.5,-72 2887.5,-78 2887.5,-84 2887.5,-84 2887.5,-96 2887.5,-96 2887.5,-102 2881.5,-108 2875.5,-108"/>
<text text-anchor="middle" x="2837.5" y="-93" font-family="sans" font-size="10.00">hill_div</text>
<text text-anchor="middle" x="2837.5" y="-82" font-family="sans" font-size="10.00">sample: LivMet_25</text>
</g>
<!-- 25&#45;&gt;0 -->
<g id="edge25" class="edge">
<title>25&#45;&gt;0</title>
<path fill="none" stroke="grey" stroke-width="2" d="M2887.51,-73.63C2890.54,-73 2893.55,-72.45 2896.5,-72 3154.1,-32.88 5102.21,-20.8 5396.35,-19.19"/>
<polygon fill="grey" stroke="grey" stroke-width="2" points="5396.51,-22.69 5406.49,-19.14 5396.47,-15.69 5396.51,-22.69"/>
</g>
<!-- 26 -->
<g id="node27" class="node">
<title>26</title>
<path fill="none" stroke="#d85656" stroke-width="2" d="M2993.5,-108C2993.5,-108 2917.5,-108 2917.5,-108 2911.5,-108 2905.5,-102 2905.5,-96 2905.5,-96 2905.5,-84 2905.5,-84 2905.5,-78 2911.5,-72 2917.5,-72 2917.5,-72 2993.5,-72 2993.5,-72 2999.5,-72 3005.5,-78 3005.5,-84 3005.5,-84 3005.5,-96 3005.5,-96 3005.5,-102 2999.5,-108 2993.5,-108"/>
<text text-anchor="middle" x="2955.5" y="-93" font-family="sans" font-size="10.00">hill_div</text>
<text text-anchor="middle" x="2955.5" y="-82" font-family="sans" font-size="10.00">sample: LivMet_26</text>
</g>
<!-- 26&#45;&gt;0 -->
<g id="edge26" class="edge">
<title>26&#45;&gt;0</title>
<path fill="none" stroke="grey" stroke-width="2" d="M3005.52,-73.64C3008.54,-73 3011.55,-72.45 3014.5,-72 3259.48,-34.67 5108.04,-21.13 5395.88,-19.24"/>
<polygon fill="grey" stroke="grey" stroke-width="2" points="5396.22,-22.74 5406.2,-19.17 5396.17,-15.74 5396.22,-22.74"/>
</g>
<!-- 27 -->
<g id="node28" class="node">
<title>27</title>
<path fill="none" stroke="#d85656" stroke-width="2" d="M3111.5,-108C3111.5,-108 3035.5,-108 3035.5,-108 3029.5,-108 3023.5,-102 3023.5,-96 3023.5,-96 3023.5,-84 3023.5,-84 3023.5,-78 3029.5,-72 3035.5,-72 3035.5,-72 3111.5,-72 3111.5,-72 3117.5,-72 3123.5,-78 3123.5,-84 3123.5,-84 3123.5,-96 3123.5,-96 3123.5,-102 3117.5,-108 3111.5,-108"/>
<text text-anchor="middle" x="3073.5" y="-93" font-family="sans" font-size="10.00">hill_div</text>
<text text-anchor="middle" x="3073.5" y="-82" font-family="sans" font-size="10.00">sample: LivMet_27</text>
</g>
<!-- 27&#45;&gt;0 -->
<g id="edge27" class="edge">
<title>27&#45;&gt;0</title>
<path fill="none" stroke="grey" stroke-width="2" d="M3123.52,-73.64C3126.54,-73.01 3129.55,-72.45 3132.5,-72 3365.03,-36.43 5116.67,-21.45 5396,-19.28"/>
<polygon fill="grey" stroke="grey" stroke-width="2" points="5396.42,-22.78 5406.4,-19.2 5396.37,-15.78 5396.42,-22.78"/>
</g>
<!-- 28 -->
<g id="node29" class="node">
<title>28</title>
<path fill="none" stroke="#d85656" stroke-width="2" d="M3229.5,-108C3229.5,-108 3153.5,-108 3153.5,-108 3147.5,-108 3141.5,-102 3141.5,-96 3141.5,-96 3141.5,-84 3141.5,-84 3141.5,-78 3147.5,-72 3153.5,-72 3153.5,-72 3229.5,-72 3229.5,-72 3235.5,-72 3241.5,-78 3241.5,-84 3241.5,-84 3241.5,-96 3241.5,-96 3241.5,-102 3235.5,-108 3229.5,-108"/>
<text text-anchor="middle" x="3191.5" y="-93" font-family="sans" font-size="10.00">hill_div</text>
<text text-anchor="middle" x="3191.5" y="-82" font-family="sans" font-size="10.00">sample: LivMet_28</text>
</g>
<!-- 28&#45;&gt;0 -->
<g id="edge28" class="edge">
<title>28&#45;&gt;0</title>
<path fill="none" stroke="grey" stroke-width="2" d="M3241.52,-73.64C3244.54,-73.01 3247.55,-72.45 3250.5,-72 3470.63,-38.19 5125.96,-21.79 5396.24,-19.33"/>
<polygon fill="grey" stroke="grey" stroke-width="2" points="5396.35,-22.83 5406.32,-19.24 5396.29,-15.83 5396.35,-22.83"/>
</g>
<!-- 29 -->
<g id="node30" class="node">
<title>29</title>
<path fill="none" stroke="#d85656" stroke-width="2" d="M3347.5,-108C3347.5,-108 3271.5,-108 3271.5,-108 3265.5,-108 3259.5,-102 3259.5,-96 3259.5,-96 3259.5,-84 3259.5,-84 3259.5,-78 3265.5,-72 3271.5,-72 3271.5,-72 3347.5,-72 3347.5,-72 3353.5,-72 3359.5,-78 3359.5,-84 3359.5,-84 3359.5,-96 3359.5,-96 3359.5,-102 3353.5,-108 3347.5,-108"/>
<text text-anchor="middle" x="3309.5" y="-93" font-family="sans" font-size="10.00">hill_div</text>
<text text-anchor="middle" x="3309.5" y="-82" font-family="sans" font-size="10.00">sample: LivMet_29</text>
</g>
<!-- 29&#45;&gt;0 -->
<g id="edge29" class="edge">
<title>29&#45;&gt;0</title>
<path fill="none" stroke="grey" stroke-width="2" d="M3359.52,-73.65C3362.54,-73.01 3365.55,-72.46 3368.5,-72 3576.18,-39.95 5134.46,-22.16 5396.23,-19.38"/>
<polygon fill="grey" stroke="grey" stroke-width="2" points="5396.4,-22.88 5406.37,-19.28 5396.33,-15.88 5396.4,-22.88"/>
</g>
<!-- 30 -->
<g id="node31" class="node">
<title>30</title>
<path fill="none" stroke="#d85656" stroke-width="2" d="M3465.5,-108C3465.5,-108 3389.5,-108 3389.5,-108 3383.5,-108 3377.5,-102 3377.5,-96 3377.5,-96 3377.5,-84 3377.5,-84 3377.5,-78 3383.5,-72 3389.5,-72 3389.5,-72 3465.5,-72 3465.5,-72 3471.5,-72 3477.5,-78 3477.5,-84 3477.5,-84 3477.5,-96 3477.5,-96 3477.5,-102 3471.5,-108 3465.5,-108"/>
<text text-anchor="middle" x="3427.5" y="-93" font-family="sans" font-size="10.00">hill_div</text>
<text text-anchor="middle" x="3427.5" y="-82" font-family="sans" font-size="10.00">sample: LivMet_30</text>
</g>
<!-- 30&#45;&gt;0 -->
<g id="edge30" class="edge">
<title>30&#45;&gt;0</title>
<path fill="none" stroke="grey" stroke-width="2" d="M3477.52,-73.65C3480.54,-73.02 3483.55,-72.46 3486.5,-72 3681.68,-41.73 5142.38,-22.57 5396.01,-19.45"/>
<polygon fill="grey" stroke="grey" stroke-width="2" points="5396.23,-22.95 5406.19,-19.33 5396.15,-15.95 5396.23,-22.95"/>
</g>
<!-- 31 -->
<g id="node32" class="node">
<title>31</title>
<path fill="none" stroke="#d85656" stroke-width="2" d="M3583.5,-108C3583.5,-108 3507.5,-108 3507.5,-108 3501.5,-108 3495.5,-102 3495.5,-96 3495.5,-96 3495.5,-84 3495.5,-84 3495.5,-78 3501.5,-72 3507.5,-72 3507.5,-72 3583.5,-72 3583.5,-72 3589.5,-72 3595.5,-78 3595.5,-84 3595.5,-84 3595.5,-96 3595.5,-96 3595.5,-102 3589.5,-108 3583.5,-108"/>
<text text-anchor="middle" x="3545.5" y="-93" font-family="sans" font-size="10.00">hill_div</text>
<text text-anchor="middle" x="3545.5" y="-82" font-family="sans" font-size="10.00">sample: LivMet_31</text>
</g>
<!-- 31&#45;&gt;0 -->
<g id="edge31" class="edge">
<title>31&#45;&gt;0</title>
<path fill="none" stroke="grey" stroke-width="2" d="M3595.52,-73.66C3598.54,-73.02 3601.55,-72.46 3604.5,-72 3967.73,-15.34 5169.2,-17.81 5396.29,-18.81"/>
<polygon fill="grey" stroke="grey" stroke-width="2" points="5396.34,-22.31 5406.36,-18.85 5396.38,-15.31 5396.34,-22.31"/>
</g>
<!-- 32 -->
<g id="node33" class="node">
<title>32</title>
<path fill="none" stroke="#d85656" stroke-width="2" d="M3701.5,-108C3701.5,-108 3625.5,-108 3625.5,-108 3619.5,-108 3613.5,-102 3613.5,-96 3613.5,-96 3613.5,-84 3613.5,-84 3613.5,-78 3619.5,-72 3625.5,-72 3625.5,-72 3701.5,-72 3701.5,-72 3707.5,-72 3713.5,-78 3713.5,-84 3713.5,-84 3713.5,-96 3713.5,-96 3713.5,-102 3707.5,-108 3701.5,-108"/>
<text text-anchor="middle" x="3663.5" y="-93" font-family="sans" font-size="10.00">hill_div</text>
<text text-anchor="middle" x="3663.5" y="-82" font-family="sans" font-size="10.00">sample: LivMet_32</text>
</g>
<!-- 32&#45;&gt;0 -->
<g id="edge32" class="edge">
<title>32&#45;&gt;0</title>
<path fill="none" stroke="grey" stroke-width="2" d="M3713.52,-73.67C3716.54,-73.03 3719.55,-72.46 3722.5,-72 4060.84,-18.87 5176.87,-18.45 5395.98,-18.89"/>
<polygon fill="grey" stroke="grey" stroke-width="2" points="5396.29,-22.39 5406.3,-18.91 5396.31,-15.39 5396.29,-22.39"/>
</g>
<!-- 33 -->
<g id="node34" class="node">
<title>33</title>
<path fill="none" stroke="#d85656" stroke-width="2" d="M3819.5,-108C3819.5,-108 3743.5,-108 3743.5,-108 3737.5,-108 3731.5,-102 3731.5,-96 3731.5,-96 3731.5,-84 3731.5,-84 3731.5,-78 3737.5,-72 3743.5,-72 3743.5,-72 3819.5,-72 3819.5,-72 3825.5,-72 3831.5,-78 3831.5,-84 3831.5,-84 3831.5,-96 3831.5,-96 3831.5,-102 3825.5,-108 3819.5,-108"/>
<text text-anchor="middle" x="3781.5" y="-93" font-family="sans" font-size="10.00">hill_div</text>
<text text-anchor="middle" x="3781.5" y="-82" font-family="sans" font-size="10.00">sample: LivMet_33</text>
</g>
<!-- 33&#45;&gt;0 -->
<g id="edge33" class="edge">
<title>33&#45;&gt;0</title>
<path fill="none" stroke="grey" stroke-width="2" d="M3831.52,-73.68C3834.54,-73.03 3837.55,-72.47 3840.5,-72 4154.31,-22.36 5186.89,-19.13 5396.27,-18.99"/>
<polygon fill="grey" stroke="grey" stroke-width="2" points="5396.44,-22.49 5406.44,-18.99 5396.43,-15.49 5396.44,-22.49"/>
</g>
<!-- 34 -->
<g id="node35" class="node">
<title>34</title>
<path fill="none" stroke="#d85656" stroke-width="2" d="M3937.5,-108C3937.5,-108 3861.5,-108 3861.5,-108 3855.5,-108 3849.5,-102 3849.5,-96 3849.5,-96 3849.5,-84 3849.5,-84 3849.5,-78 3855.5,-72 3861.5,-72 3861.5,-72 3937.5,-72 3937.5,-72 3943.5,-72 3949.5,-78 3949.5,-84 3949.5,-84 3949.5,-96 3949.5,-96 3949.5,-102 3943.5,-108 3937.5,-108"/>
<text text-anchor="middle" x="3899.5" y="-93" font-family="sans" font-size="10.00">hill_div</text>
<text text-anchor="middle" x="3899.5" y="-82" font-family="sans" font-size="10.00">sample: LivMet_34</text>
</g>
<!-- 34&#45;&gt;0 -->
<g id="edge34" class="edge">
<title>34&#45;&gt;0</title>
<path fill="none" stroke="grey" stroke-width="2" d="M3949.52,-73.68C3952.54,-73.04 3955.55,-72.47 3958.5,-72 4247.66,-25.86 5196.11,-19.86 5396.22,-19.11"/>
<polygon fill="grey" stroke="grey" stroke-width="2" points="5396.51,-22.61 5406.5,-19.07 5396.49,-15.61 5396.51,-22.61"/>
</g>
<!-- 35 -->
<g id="node36" class="node">
<title>35</title>
<path fill="none" stroke="#d85656" stroke-width="2" d="M4055.5,-108C4055.5,-108 3979.5,-108 3979.5,-108 3973.5,-108 3967.5,-102 3967.5,-96 3967.5,-96 3967.5,-84 3967.5,-84 3967.5,-78 3973.5,-72 3979.5,-72 3979.5,-72 4055.5,-72 4055.5,-72 4061.5,-72 4067.5,-78 4067.5,-84 4067.5,-84 4067.5,-96 4067.5,-96 4067.5,-102 4061.5,-108 4055.5,-108"/>
<text text-anchor="middle" x="4017.5" y="-93" font-family="sans" font-size="10.00">hill_div</text>
<text text-anchor="middle" x="4017.5" y="-82" font-family="sans" font-size="10.00">sample: LivMet_35</text>
</g>
<!-- 35&#45;&gt;0 -->
<g id="edge35" class="edge">
<title>35&#45;&gt;0</title>
<path fill="none" stroke="grey" stroke-width="2" d="M4067.52,-73.7C4070.55,-73.05 4073.55,-72.47 4076.5,-72 4341.07,-29.36 5205.81,-20.66 5396.2,-19.24"/>
<polygon fill="grey" stroke="grey" stroke-width="2" points="5396.29,-22.74 5406.27,-19.17 5396.24,-15.74 5396.29,-22.74"/>
</g>
<!-- 36 -->
<g id="node37" class="node">
<title>36</title>
<path fill="none" stroke="#d85656" stroke-width="2" d="M4173.5,-108C4173.5,-108 4097.5,-108 4097.5,-108 4091.5,-108 4085.5,-102 4085.5,-96 4085.5,-96 4085.5,-84 4085.5,-84 4085.5,-78 4091.5,-72 4097.5,-72 4097.5,-72 4173.5,-72 4173.5,-72 4179.5,-72 4185.5,-78 4185.5,-84 4185.5,-84 4185.5,-96 4185.5,-96 4185.5,-102 4179.5,-108 4173.5,-108"/>
<text text-anchor="middle" x="4135.5" y="-93" font-family="sans" font-size="10.00">hill_div</text>
<text text-anchor="middle" x="4135.5" y="-82" font-family="sans" font-size="10.00">sample: LivMet_36</text>
</g>
<!-- 36&#45;&gt;0 -->
<g id="edge36" class="edge">
<title>36&#45;&gt;0</title>
<path fill="none" stroke="grey" stroke-width="2" d="M4185.53,-73.71C4188.55,-73.06 4191.55,-72.48 4194.5,-72 4434.62,-32.85 5216.39,-21.52 5396.33,-19.4"/>
<polygon fill="grey" stroke="grey" stroke-width="2" points="5396.4,-22.9 5406.36,-19.28 5396.32,-15.9 5396.4,-22.9"/>
</g>
<!-- 37 -->
<g id="node38" class="node">
<title>37</title>
<path fill="none" stroke="#d85656" stroke-width="2" d="M4291.5,-108C4291.5,-108 4215.5,-108 4215.5,-108 4209.5,-108 4203.5,-102 4203.5,-96 4203.5,-96 4203.5,-84 4203.5,-84 4203.5,-78 4209.5,-72 4215.5,-72 4215.5,-72 4291.5,-72 4291.5,-72 4297.5,-72 4303.5,-78 4303.5,-84 4303.5,-84 4303.5,-96 4303.5,-96 4303.5,-102 4297.5,-108 4291.5,-108"/>
<text text-anchor="middle" x="4253.5" y="-93" font-family="sans" font-size="10.00">hill_div</text>
<text text-anchor="middle" x="4253.5" y="-82" font-family="sans" font-size="10.00">sample: LivMet_37</text>
</g>
<!-- 37&#45;&gt;0 -->
<g id="edge37" class="edge">
<title>37&#45;&gt;0</title>
<path fill="none" stroke="grey" stroke-width="2" d="M4303.53,-73.72C4306.55,-73.07 4309.56,-72.49 4312.5,-72 4527.98,-36.37 5225.78,-22.5 5395.86,-19.6"/>
<polygon fill="grey" stroke="grey" stroke-width="2" points="5396.13,-23.1 5406.07,-19.43 5396.01,-16.1 5396.13,-23.1"/>
</g>
<!-- 38 -->
<g id="node39" class="node">
<title>38</title>
<path fill="none" stroke="#d85656" stroke-width="2" d="M4409.5,-108C4409.5,-108 4333.5,-108 4333.5,-108 4327.5,-108 4321.5,-102 4321.5,-96 4321.5,-96 4321.5,-84 4321.5,-84 4321.5,-78 4327.5,-72 4333.5,-72 4333.5,-72 4409.5,-72 4409.5,-72 4415.5,-72 4421.5,-78 4421.5,-84 4421.5,-84 4421.5,-96 4421.5,-96 4421.5,-102 4415.5,-108 4409.5,-108"/>
<text text-anchor="middle" x="4371.5" y="-93" font-family="sans" font-size="10.00">hill_div</text>
<text text-anchor="middle" x="4371.5" y="-82" font-family="sans" font-size="10.00">sample: LivMet_38</text>
</g>
<!-- 38&#45;&gt;0 -->
<g id="edge38" class="edge">
<title>38&#45;&gt;0</title>
<path fill="none" stroke="grey" stroke-width="2" d="M4421.53,-73.74C4424.55,-73.09 4427.56,-72.5 4430.5,-72 4621.71,-39.83 5237.63,-23.56 5396.06,-19.84"/>
<polygon fill="grey" stroke="grey" stroke-width="2" points="5396.33,-23.33 5406.25,-19.6 5396.17,-16.33 5396.33,-23.33"/>
</g>
<!-- 39 -->
<g id="node40" class="node">
<title>39</title>
<path fill="none" stroke="#d85656" stroke-width="2" d="M4527.5,-108C4527.5,-108 4451.5,-108 4451.5,-108 4445.5,-108 4439.5,-102 4439.5,-96 4439.5,-96 4439.5,-84 4439.5,-84 4439.5,-78 4445.5,-72 4451.5,-72 4451.5,-72 4527.5,-72 4527.5,-72 4533.5,-72 4539.5,-78 4539.5,-84 4539.5,-84 4539.5,-96 4539.5,-96 4539.5,-102 4533.5,-108 4527.5,-108"/>
<text text-anchor="middle" x="4489.5" y="-93" font-family="sans" font-size="10.00">hill_div</text>
<text text-anchor="middle" x="4489.5" y="-82" font-family="sans" font-size="10.00">sample: LivMet_39</text>
</g>
<!-- 39&#45;&gt;0 -->
<g id="edge39" class="edge">
<title>39&#45;&gt;0</title>
<path fill="none" stroke="grey" stroke-width="2" d="M4539.54,-73.77C4542.55,-73.1 4545.56,-72.51 4548.5,-72 4715.36,-43.33 5249,-24.79 5395.81,-20.15"/>
<polygon fill="grey" stroke="grey" stroke-width="2" points="5396.21,-23.64 5406.09,-19.83 5395.99,-16.64 5396.21,-23.64"/>
</g>
<!-- 40 -->
<g id="node41" class="node">
<title>40</title>
<path fill="none" stroke="#d85656" stroke-width="2" d="M4645.5,-108C4645.5,-108 4569.5,-108 4569.5,-108 4563.5,-108 4557.5,-102 4557.5,-96 4557.5,-96 4557.5,-84 4557.5,-84 4557.5,-78 4563.5,-72 4569.5,-72 4569.5,-72 4645.5,-72 4645.5,-72 4651.5,-72 4657.5,-78 4657.5,-84 4657.5,-84 4657.5,-96 4657.5,-96 4657.5,-102 4651.5,-108 4645.5,-108"/>
<text text-anchor="middle" x="4607.5" y="-93" font-family="sans" font-size="10.00">hill_div</text>
<text text-anchor="middle" x="4607.5" y="-82" font-family="sans" font-size="10.00">sample: LivMet_40</text>
</g>
<!-- 40&#45;&gt;0 -->
<g id="edge40" class="edge">
<title>40&#45;&gt;0</title>
<path fill="none" stroke="grey" stroke-width="2" d="M4657.54,-73.8C4660.56,-73.13 4663.56,-72.52 4666.5,-72 4943.78,-23.04 5284.88,-18.78 5396.36,-18.8"/>
<polygon fill="grey" stroke="grey" stroke-width="2" points="5396.41,-22.3 5406.42,-18.81 5396.42,-15.3 5396.41,-22.3"/>
</g>
<!-- 41 -->
<g id="node42" class="node">
<title>41</title>
<path fill="none" stroke="#d85656" stroke-width="2" d="M4763.5,-108C4763.5,-108 4687.5,-108 4687.5,-108 4681.5,-108 4675.5,-102 4675.5,-96 4675.5,-96 4675.5,-84 4675.5,-84 4675.5,-78 4681.5,-72 4687.5,-72 4687.5,-72 4763.5,-72 4763.5,-72 4769.5,-72 4775.5,-78 4775.5,-84 4775.5,-84 4775.5,-96 4775.5,-96 4775.5,-102 4769.5,-108 4763.5,-108"/>
<text text-anchor="middle" x="4725.5" y="-93" font-family="sans" font-size="10.00">hill_div</text>
<text text-anchor="middle" x="4725.5" y="-82" font-family="sans" font-size="10.00">sample: LivMet_41</text>
</g>
<!-- 41&#45;&gt;0 -->
<g id="edge41" class="edge">
<title>41&#45;&gt;0</title>
<path fill="none" stroke="grey" stroke-width="2" d="M4775.55,-73.84C4778.56,-73.16 4781.56,-72.54 4784.5,-72 5014.37,-29.93 5296.18,-21.24 5396.16,-19.46"/>
<polygon fill="grey" stroke="grey" stroke-width="2" points="5396.42,-22.96 5406.36,-19.29 5396.3,-15.96 5396.42,-22.96"/>
</g>
<!-- 42 -->
<g id="node43" class="node">
<title>42</title>
<path fill="none" stroke="#d85656" stroke-width="2" d="M4881.5,-108C4881.5,-108 4805.5,-108 4805.5,-108 4799.5,-108 4793.5,-102 4793.5,-96 4793.5,-96 4793.5,-84 4793.5,-84 4793.5,-78 4799.5,-72 4805.5,-72 4805.5,-72 4881.5,-72 4881.5,-72 4887.5,-72 4893.5,-78 4893.5,-84 4893.5,-84 4893.5,-96 4893.5,-96 4893.5,-102 4887.5,-108 4881.5,-108"/>
<text text-anchor="middle" x="4843.5" y="-93" font-family="sans" font-size="10.00">hill_div</text>
<text text-anchor="middle" x="4843.5" y="-82" font-family="sans" font-size="10.00">sample: LivMet_42</text>
</g>
<!-- 42&#45;&gt;0 -->
<g id="edge42" class="edge">
<title>42&#45;&gt;0</title>
<path fill="none" stroke="grey" stroke-width="2" d="M4893.56,-73.91C4896.57,-73.21 4899.57,-72.56 4902.5,-72 5085.69,-36.77 5309.2,-24.17 5396.28,-20.4"/>
<polygon fill="grey" stroke="grey" stroke-width="2" points="5396.61,-23.89 5406.45,-19.97 5396.32,-16.89 5396.61,-23.89"/>
</g>
<!-- 43 -->
<g id="node44" class="node">
<title>43</title>
<path fill="none" stroke="#d85656" stroke-width="2" d="M4999.5,-108C4999.5,-108 4923.5,-108 4923.5,-108 4917.5,-108 4911.5,-102 4911.5,-96 4911.5,-96 4911.5,-84 4911.5,-84 4911.5,-78 4917.5,-72 4923.5,-72 4923.5,-72 4999.5,-72 4999.5,-72 5005.5,-72 5011.5,-78 5011.5,-84 5011.5,-84 5011.5,-96 5011.5,-96 5011.5,-102 5005.5,-108 4999.5,-108"/>
<text text-anchor="middle" x="4961.5" y="-93" font-family="sans" font-size="10.00">hill_div</text>
<text text-anchor="middle" x="4961.5" y="-82" font-family="sans" font-size="10.00">sample: LivMet_43</text>
</g>
<!-- 43&#45;&gt;0 -->
<g id="edge43" class="edge">
<title>43&#45;&gt;0</title>
<path fill="none" stroke="grey" stroke-width="2" d="M5011.58,-74.01C5014.59,-73.28 5017.58,-72.6 5020.5,-72 5157.47,-43.65 5323.31,-27.88 5396.15,-21.87"/>
<polygon fill="grey" stroke="grey" stroke-width="2" points="5396.52,-25.35 5406.2,-21.05 5395.95,-18.37 5396.52,-25.35"/>
</g>
<!-- 44 -->
<g id="node45" class="node">
<title>44</title>
<path fill="none" stroke="#d85656" stroke-width="2" d="M5117.5,-108C5117.5,-108 5041.5,-108 5041.5,-108 5035.5,-108 5029.5,-102 5029.5,-96 5029.5,-96 5029.5,-84 5029.5,-84 5029.5,-78 5035.5,-72 5041.5,-72 5041.5,-72 5117.5,-72 5117.5,-72 5123.5,-72 5129.5,-78 5129.5,-84 5129.5,-84 5129.5,-96 5129.5,-96 5129.5,-102 5123.5,-108 5117.5,-108"/>
<text text-anchor="middle" x="5079.5" y="-93" font-family="sans" font-size="10.00">hill_div</text>
<text text-anchor="middle" x="5079.5" y="-82" font-family="sans" font-size="10.00">sample: LivMet_44</text>
</g>
<!-- 44&#45;&gt;0 -->
<g id="edge44" class="edge">
<title>44&#45;&gt;0</title>
<path fill="none" stroke="grey" stroke-width="2" d="M5129.62,-74.18C5132.62,-73.41 5135.59,-72.68 5138.5,-72 5230.38,-50.57 5340.09,-32.91 5396.29,-24.43"/>
<polygon fill="grey" stroke="grey" stroke-width="2" points="5397.09,-27.85 5406.47,-22.9 5396.06,-20.92 5397.09,-27.85"/>
</g>
<!-- 45 -->
<g id="node46" class="node">
<title>45</title>
<path fill="none" stroke="#d85656" stroke-width="2" d="M5235.5,-108C5235.5,-108 5159.5,-108 5159.5,-108 5153.5,-108 5147.5,-102 5147.5,-96 5147.5,-96 5147.5,-84 5147.5,-84 5147.5,-78 5153.5,-72 5159.5,-72 5159.5,-72 5235.5,-72 5235.5,-72 5241.5,-72 5247.5,-78 5247.5,-84 5247.5,-84 5247.5,-96 5247.5,-96 5247.5,-102 5241.5,-108 5235.5,-108"/>
<text text-anchor="middle" x="5197.5" y="-93" font-family="sans" font-size="10.00">hill_div</text>
<text text-anchor="middle" x="5197.5" y="-82" font-family="sans" font-size="10.00">sample: LivMet_45</text>
</g>
<!-- 45&#45;&gt;0 -->
<g id="edge45" class="edge">
<title>45&#45;&gt;0</title>
<path fill="none" stroke="grey" stroke-width="2" d="M5247.55,-74.15C5292.2,-60.91 5356.55,-41.82 5396.65,-29.93"/>
<polygon fill="grey" stroke="grey" stroke-width="2" points="5397.71,-33.27 5406.3,-27.07 5395.72,-26.56 5397.71,-33.27"/>
</g>
<!-- 46 -->
<g id="node47" class="node">
<title>46</title>
<path fill="none" stroke="#d85656" stroke-width="2" d="M5353.5,-108C5353.5,-108 5277.5,-108 5277.5,-108 5271.5,-108 5265.5,-102 5265.5,-96 5265.5,-96 5265.5,-84 5265.5,-84 5265.5,-78 5271.5,-72 5277.5,-72 5277.5,-72 5353.5,-72 5353.5,-72 5359.5,-72 5365.5,-78 5365.5,-84 5365.5,-84 5365.5,-96 5365.5,-96 5365.5,-102 5359.5,-108 5353.5,-108"/>
<text text-anchor="middle" x="5315.5" y="-93" font-family="sans" font-size="10.00">hill_div</text>
<text text-anchor="middle" x="5315.5" y="-82" font-family="sans" font-size="10.00">sample: LivMet_46</text>
</g>
<!-- 46&#45;&gt;0 -->
<g id="edge46" class="edge">
<title>46&#45;&gt;0</title>
<path fill="none" stroke="grey" stroke-width="2" d="M5344.37,-71.88C5360.26,-62.45 5380.13,-50.66 5397.08,-40.61"/>
<polygon fill="grey" stroke="grey" stroke-width="2" points="5399.33,-43.34 5406.15,-35.23 5395.76,-37.32 5399.33,-43.34"/>
</g>
<!-- 47 -->
<g id="node48" class="node">
<title>47</title>
<path fill="none" stroke="#d85656" stroke-width="2" d="M5471.5,-108C5471.5,-108 5395.5,-108 5395.5,-108 5389.5,-108 5383.5,-102 5383.5,-96 5383.5,-96 5383.5,-84 5383.5,-84 5383.5,-78 5389.5,-72 5395.5,-72 5395.5,-72 5471.5,-72 5471.5,-72 5477.5,-72 5483.5,-78 5483.5,-84 5483.5,-84 5483.5,-96 5483.5,-96 5483.5,-102 5477.5,-108 5471.5,-108"/>
<text text-anchor="middle" x="5433.5" y="-93" font-family="sans" font-size="10.00">hill_div</text>
<text text-anchor="middle" x="5433.5" y="-82" font-family="sans" font-size="10.00">sample: LivMet_47</text>
</g>
<!-- 47&#45;&gt;0 -->
<g id="edge47" class="edge">
<title>47&#45;&gt;0</title>
<path fill="none" stroke="grey" stroke-width="2" d="M5433.5,-71.7C5433.5,-63.98 5433.5,-54.71 5433.5,-46.11"/>
<polygon fill="grey" stroke="grey" stroke-width="2" points="5437,-46.1 5433.5,-36.1 5430,-46.1 5437,-46.1"/>
</g>
<!-- 48 -->
<g id="node49" class="node">
<title>48</title>
<path fill="none" stroke="#d85656" stroke-width="2" d="M5589.5,-108C5589.5,-108 5513.5,-108 5513.5,-108 5507.5,-108 5501.5,-102 5501.5,-96 5501.5,-96 5501.5,-84 5501.5,-84 5501.5,-78 5507.5,-72 5513.5,-72 5513.5,-72 5589.5,-72 5589.5,-72 5595.5,-72 5601.5,-78 5601.5,-84 5601.5,-84 5601.5,-96 5601.5,-96 5601.5,-102 5595.5,-108 5589.5,-108"/>
<text text-anchor="middle" x="5551.5" y="-93" font-family="sans" font-size="10.00">hill_div</text>
<text text-anchor="middle" x="5551.5" y="-82" font-family="sans" font-size="10.00">sample: LivMet_48</text>
</g>
<!-- 48&#45;&gt;0 -->
<g id="edge48" class="edge">
<title>48&#45;&gt;0</title>
<path fill="none" stroke="grey" stroke-width="2" d="M5522.63,-71.88C5506.74,-62.45 5486.87,-50.66 5469.92,-40.61"/>
<polygon fill="grey" stroke="grey" stroke-width="2" points="5471.24,-37.32 5460.85,-35.23 5467.67,-43.34 5471.24,-37.32"/>
</g>
<!-- 49 -->
<g id="node50" class="node">
<title>49</title>
<path fill="none" stroke="#d85656" stroke-width="2" d="M5707.5,-108C5707.5,-108 5631.5,-108 5631.5,-108 5625.5,-108 5619.5,-102 5619.5,-96 5619.5,-96 5619.5,-84 5619.5,-84 5619.5,-78 5625.5,-72 5631.5,-72 5631.5,-72 5707.5,-72 5707.5,-72 5713.5,-72 5719.5,-78 5719.5,-84 5719.5,-84 5719.5,-96 5719.5,-96 5719.5,-102 5713.5,-108 5707.5,-108"/>
<text text-anchor="middle" x="5669.5" y="-93" font-family="sans" font-size="10.00">hill_div</text>
<text text-anchor="middle" x="5669.5" y="-82" font-family="sans" font-size="10.00">sample: LivMet_49</text>
</g>
<!-- 49&#45;&gt;0 -->
<g id="edge49" class="edge">
<title>49&#45;&gt;0</title>
<path fill="none" stroke="grey" stroke-width="2" d="M5619.45,-74.15C5574.8,-60.91 5510.45,-41.82 5470.35,-29.93"/>
<polygon fill="grey" stroke="grey" stroke-width="2" points="5471.28,-26.56 5460.7,-27.07 5469.29,-33.27 5471.28,-26.56"/>
</g>
<!-- 50 -->
<g id="node51" class="node">
<title>50</title>
<path fill="none" stroke="#d85656" stroke-width="2" d="M5825.5,-108C5825.5,-108 5749.5,-108 5749.5,-108 5743.5,-108 5737.5,-102 5737.5,-96 5737.5,-96 5737.5,-84 5737.5,-84 5737.5,-78 5743.5,-72 5749.5,-72 5749.5,-72 5825.5,-72 5825.5,-72 5831.5,-72 5837.5,-78 5837.5,-84 5837.5,-84 5837.5,-96 5837.5,-96 5837.5,-102 5831.5,-108 5825.5,-108"/>
<text text-anchor="middle" x="5787.5" y="-93" font-family="sans" font-size="10.00">hill_div</text>
<text text-anchor="middle" x="5787.5" y="-82" font-family="sans" font-size="10.00">sample: LivMet_50</text>
</g>
<!-- 50&#45;&gt;0 -->
<g id="edge50" class="edge">
<title>50&#45;&gt;0</title>
<path fill="none" stroke="grey" stroke-width="2" d="M5737.38,-74.18C5734.38,-73.41 5731.41,-72.68 5728.5,-72 5636.62,-50.57 5526.91,-32.91 5470.71,-24.43"/>
<polygon fill="grey" stroke="grey" stroke-width="2" points="5470.94,-20.92 5460.53,-22.9 5469.91,-27.85 5470.94,-20.92"/>
</g>
<!-- 51 -->
<g id="node52" class="node">
<title>51</title>
<path fill="none" stroke="#d85656" stroke-width="2" d="M5943.5,-108C5943.5,-108 5867.5,-108 5867.5,-108 5861.5,-108 5855.5,-102 5855.5,-96 5855.5,-96 5855.5,-84 5855.5,-84 5855.5,-78 5861.5,-72 5867.5,-72 5867.5,-72 5943.5,-72 5943.5,-72 5949.5,-72 5955.5,-78 5955.5,-84 5955.5,-84 5955.5,-96 5955.5,-96 5955.5,-102 5949.5,-108 5943.5,-108"/>
<text text-anchor="middle" x="5905.5" y="-93" font-family="sans" font-size="10.00">hill_div</text>
<text text-anchor="middle" x="5905.5" y="-82" font-family="sans" font-size="10.00">sample: LivMet_51</text>
</g>
<!-- 51&#45;&gt;0 -->
<g id="edge51" class="edge">
<title>51&#45;&gt;0</title>
<path fill="none" stroke="grey" stroke-width="2" d="M5855.42,-74.01C5852.41,-73.28 5849.42,-72.6 5846.5,-72 5709.53,-43.65 5543.69,-27.88 5470.85,-21.87"/>
<polygon fill="grey" stroke="grey" stroke-width="2" points="5471.05,-18.37 5460.8,-21.05 5470.48,-25.35 5471.05,-18.37"/>
</g>
<!-- 52 -->
<g id="node53" class="node">
<title>52</title>
<path fill="none" stroke="#d85656" stroke-width="2" d="M6061.5,-108C6061.5,-108 5985.5,-108 5985.5,-108 5979.5,-108 5973.5,-102 5973.5,-96 5973.5,-96 5973.5,-84 5973.5,-84 5973.5,-78 5979.5,-72 5985.5,-72 5985.5,-72 6061.5,-72 6061.5,-72 6067.5,-72 6073.5,-78 6073.5,-84 6073.5,-84 6073.5,-96 6073.5,-96 6073.5,-102 6067.5,-108 6061.5,-108"/>
<text text-anchor="middle" x="6023.5" y="-93" font-family="sans" font-size="10.00">hill_div</text>
<text text-anchor="middle" x="6023.5" y="-82" font-family="sans" font-size="10.00">sample: LivMet_52</text>
</g>
<!-- 52&#45;&gt;0 -->
<g id="edge52" class="edge">
<title>52&#45;&gt;0</title>
<path fill="none" stroke="grey" stroke-width="2" d="M5973.44,-73.91C5970.43,-73.21 5967.43,-72.56 5964.5,-72 5781.31,-36.77 5557.8,-24.17 5470.72,-20.4"/>
<polygon fill="grey" stroke="grey" stroke-width="2" points="5470.68,-16.89 5460.55,-19.97 5470.39,-23.89 5470.68,-16.89"/>
</g>
<!-- 53 -->
<g id="node54" class="node">
<title>53</title>
<path fill="none" stroke="#d85656" stroke-width="2" d="M6179.5,-108C6179.5,-108 6103.5,-108 6103.5,-108 6097.5,-108 6091.5,-102 6091.5,-96 6091.5,-96 6091.5,-84 6091.5,-84 6091.5,-78 6097.5,-72 6103.5,-72 6103.5,-72 6179.5,-72 6179.5,-72 6185.5,-72 6191.5,-78 6191.5,-84 6191.5,-84 6191.5,-96 6191.5,-96 6191.5,-102 6185.5,-108 6179.5,-108"/>
<text text-anchor="middle" x="6141.5" y="-93" font-family="sans" font-size="10.00">hill_div</text>
<text text-anchor="middle" x="6141.5" y="-82" font-family="sans" font-size="10.00">sample: LivMet_53</text>
</g>
<!-- 53&#45;&gt;0 -->
<g id="edge53" class="edge">
<title>53&#45;&gt;0</title>
<path fill="none" stroke="grey" stroke-width="2" d="M6091.45,-73.84C6088.44,-73.16 6085.44,-72.54 6082.5,-72 5852.63,-29.93 5570.82,-21.24 5470.84,-19.46"/>
<polygon fill="grey" stroke="grey" stroke-width="2" points="5470.7,-15.96 5460.64,-19.29 5470.58,-22.96 5470.7,-15.96"/>
</g>
<!-- 54 -->
<g id="node55" class="node">
<title>54</title>
<path fill="none" stroke="#d85656" stroke-width="2" d="M6297.5,-108C6297.5,-108 6221.5,-108 6221.5,-108 6215.5,-108 6209.5,-102 6209.5,-96 6209.5,-96 6209.5,-84 6209.5,-84 6209.5,-78 6215.5,-72 6221.5,-72 6221.5,-72 6297.5,-72 6297.5,-72 6303.5,-72 6309.5,-78 6309.5,-84 6309.5,-84 6309.5,-96 6309.5,-96 6309.5,-102 6303.5,-108 6297.5,-108"/>
<text text-anchor="middle" x="6259.5" y="-93" font-family="sans" font-size="10.00">hill_div</text>
<text text-anchor="middle" x="6259.5" y="-82" font-family="sans" font-size="10.00">sample: LivMet_54</text>
</g>
<!-- 54&#45;&gt;0 -->
<g id="edge54" class="edge">
<title>54&#45;&gt;0</title>
<path fill="none" stroke="grey" stroke-width="2" d="M6209.46,-73.8C6206.44,-73.13 6203.44,-72.52 6200.5,-72 5923.22,-23.04 5582.12,-18.78 5470.64,-18.8"/>
<polygon fill="grey" stroke="grey" stroke-width="2" points="5470.58,-15.3 5460.58,-18.81 5470.59,-22.3 5470.58,-15.3"/>
</g>
<!-- 55 -->
<g id="node56" class="node">
<title>55</title>
<path fill="none" stroke="#d85656" stroke-width="2" d="M6415.5,-108C6415.5,-108 6339.5,-108 6339.5,-108 6333.5,-108 6327.5,-102 6327.5,-96 6327.5,-96 6327.5,-84 6327.5,-84 6327.5,-78 6333.5,-72 6339.5,-72 6339.5,-72 6415.5,-72 6415.5,-72 6421.5,-72 6427.5,-78 6427.5,-84 6427.5,-84 6427.5,-96 6427.5,-96 6427.5,-102 6421.5,-108 6415.5,-108"/>
<text text-anchor="middle" x="6377.5" y="-93" font-family="sans" font-size="10.00">hill_div</text>
<text text-anchor="middle" x="6377.5" y="-82" font-family="sans" font-size="10.00">sample: LivMet_55</text>
</g>
<!-- 55&#45;&gt;0 -->
<g id="edge55" class="edge">
<title>55&#45;&gt;0</title>
<path fill="none" stroke="grey" stroke-width="2" d="M6327.46,-73.77C6324.45,-73.1 6321.44,-72.51 6318.5,-72 6151.64,-43.33 5618,-24.79 5471.19,-20.15"/>
<polygon fill="grey" stroke="grey" stroke-width="2" points="5471.01,-16.64 5460.91,-19.83 5470.79,-23.64 5471.01,-16.64"/>
</g>
<!-- 56 -->
<g id="node57" class="node">
<title>56</title>
<path fill="none" stroke="#d85656" stroke-width="2" d="M6533.5,-108C6533.5,-108 6457.5,-108 6457.5,-108 6451.5,-108 6445.5,-102 6445.5,-96 6445.5,-96 6445.5,-84 6445.5,-84 6445.5,-78 6451.5,-72 6457.5,-72 6457.5,-72 6533.5,-72 6533.5,-72 6539.5,-72 6545.5,-78 6545.5,-84 6545.5,-84 6545.5,-96 6545.5,-96 6545.5,-102 6539.5,-108 6533.5,-108"/>
<text text-anchor="middle" x="6495.5" y="-93" font-family="sans" font-size="10.00">hill_div</text>
<text text-anchor="middle" x="6495.5" y="-82" font-family="sans" font-size="10.00">sample: LivMet_56</text>
</g>
<!-- 56&#45;&gt;0 -->
<g id="edge56" class="edge">
<title>56&#45;&gt;0</title>
<path fill="none" stroke="grey" stroke-width="2" d="M6445.47,-73.74C6442.45,-73.09 6439.44,-72.5 6436.5,-72 6245.29,-39.83 5629.37,-23.56 5470.94,-19.84"/>
<polygon fill="grey" stroke="grey" stroke-width="2" points="5470.83,-16.33 5460.75,-19.6 5470.67,-23.33 5470.83,-16.33"/>
</g>
<!-- 57 -->
<g id="node58" class="node">
<title>57</title>
<path fill="none" stroke="#d85656" stroke-width="2" d="M6651.5,-108C6651.5,-108 6575.5,-108 6575.5,-108 6569.5,-108 6563.5,-102 6563.5,-96 6563.5,-96 6563.5,-84 6563.5,-84 6563.5,-78 6569.5,-72 6575.5,-72 6575.5,-72 6651.5,-72 6651.5,-72 6657.5,-72 6663.5,-78 6663.5,-84 6663.5,-84 6663.5,-96 6663.5,-96 6663.5,-102 6657.5,-108 6651.5,-108"/>
<text text-anchor="middle" x="6613.5" y="-93" font-family="sans" font-size="10.00">hill_div</text>
<text text-anchor="middle" x="6613.5" y="-82" font-family="sans" font-size="10.00">sample: LivMet_57</text>
</g>
<!-- 57&#45;&gt;0 -->
<g id="edge57" class="edge">
<title>57&#45;&gt;0</title>
<path fill="none" stroke="grey" stroke-width="2" d="M6563.47,-73.72C6560.45,-73.07 6557.44,-72.49 6554.5,-72 6339.02,-36.37 5641.22,-22.5 5471.14,-19.6"/>
<polygon fill="grey" stroke="grey" stroke-width="2" points="5470.99,-16.1 5460.93,-19.43 5470.87,-23.1 5470.99,-16.1"/>
</g>
<!-- 58 -->
<g id="node59" class="node">
<title>58</title>
<path fill="none" stroke="#d85656" stroke-width="2" d="M6769.5,-108C6769.5,-108 6693.5,-108 6693.5,-108 6687.5,-108 6681.5,-102 6681.5,-96 6681.5,-96 6681.5,-84 6681.5,-84 6681.5,-78 6687.5,-72 6693.5,-72 6693.5,-72 6769.5,-72 6769.5,-72 6775.5,-72 6781.5,-78 6781.5,-84 6781.5,-84 6781.5,-96 6781.5,-96 6781.5,-102 6775.5,-108 6769.5,-108"/>
<text text-anchor="middle" x="6731.5" y="-93" font-family="sans" font-size="10.00">hill_div</text>
<text text-anchor="middle" x="6731.5" y="-82" font-family="sans" font-size="10.00">sample: LivMet_58</text>
</g>
<!-- 58&#45;&gt;0 -->
<g id="edge58" class="edge">
<title>58&#45;&gt;0</title>
<path fill="none" stroke="grey" stroke-width="2" d="M6681.47,-73.71C6678.45,-73.06 6675.45,-72.48 6672.5,-72 6432.38,-32.85 5650.61,-21.52 5470.67,-19.4"/>
<polygon fill="grey" stroke="grey" stroke-width="2" points="5470.68,-15.9 5460.64,-19.28 5470.6,-22.9 5470.68,-15.9"/>
</g>
<!-- 59 -->
<g id="node60" class="node">
<title>59</title>
<path fill="none" stroke="#d85656" stroke-width="2" d="M6887.5,-108C6887.5,-108 6811.5,-108 6811.5,-108 6805.5,-108 6799.5,-102 6799.5,-96 6799.5,-96 6799.5,-84 6799.5,-84 6799.5,-78 6805.5,-72 6811.5,-72 6811.5,-72 6887.5,-72 6887.5,-72 6893.5,-72 6899.5,-78 6899.5,-84 6899.5,-84 6899.5,-96 6899.5,-96 6899.5,-102 6893.5,-108 6887.5,-108"/>
<text text-anchor="middle" x="6849.5" y="-93" font-family="sans" font-size="10.00">hill_div</text>
<text text-anchor="middle" x="6849.5" y="-82" font-family="sans" font-size="10.00">sample: LivMet_59</text>
</g>
<!-- 59&#45;&gt;0 -->
<g id="edge59" class="edge">
<title>59&#45;&gt;0</title>
<path fill="none" stroke="grey" stroke-width="2" d="M6799.48,-73.7C6796.45,-73.05 6793.45,-72.47 6790.5,-72 6525.93,-29.36 5661.19,-20.66 5470.8,-19.24"/>
<polygon fill="grey" stroke="grey" stroke-width="2" points="5470.76,-15.74 5460.73,-19.17 5470.71,-22.74 5470.76,-15.74"/>
</g>
<!-- 60 -->
<g id="node61" class="node">
<title>60</title>
<path fill="none" stroke="#d85656" stroke-width="2" d="M7005.5,-108C7005.5,-108 6929.5,-108 6929.5,-108 6923.5,-108 6917.5,-102 6917.5,-96 6917.5,-96 6917.5,-84 6917.5,-84 6917.5,-78 6923.5,-72 6929.5,-72 6929.5,-72 7005.5,-72 7005.5,-72 7011.5,-72 7017.5,-78 7017.5,-84 7017.5,-84 7017.5,-96 7017.5,-96 7017.5,-102 7011.5,-108 7005.5,-108"/>
<text text-anchor="middle" x="6967.5" y="-93" font-family="sans" font-size="10.00">hill_div</text>
<text text-anchor="middle" x="6967.5" y="-82" font-family="sans" font-size="10.00">sample: LivMet_60</text>
</g>
<!-- 60&#45;&gt;0 -->
<g id="edge60" class="edge">
<title>60&#45;&gt;0</title>
<path fill="none" stroke="grey" stroke-width="2" d="M6917.48,-73.68C6914.46,-73.04 6911.45,-72.47 6908.5,-72 6619.34,-25.86 5670.89,-19.86 5470.78,-19.11"/>
<polygon fill="grey" stroke="grey" stroke-width="2" points="5470.51,-15.61 5460.5,-19.07 5470.49,-22.61 5470.51,-15.61"/>
</g>
<!-- 61 -->
<g id="node62" class="node">
<title>61</title>
<path fill="none" stroke="#d85656" stroke-width="2" d="M7123.5,-108C7123.5,-108 7047.5,-108 7047.5,-108 7041.5,-108 7035.5,-102 7035.5,-96 7035.5,-96 7035.5,-84 7035.5,-84 7035.5,-78 7041.5,-72 7047.5,-72 7047.5,-72 7123.5,-72 7123.5,-72 7129.5,-72 7135.5,-78 7135.5,-84 7135.5,-84 7135.5,-96 7135.5,-96 7135.5,-102 7129.5,-108 7123.5,-108"/>
<text text-anchor="middle" x="7085.5" y="-93" font-family="sans" font-size="10.00">hill_div</text>
<text text-anchor="middle" x="7085.5" y="-82" font-family="sans" font-size="10.00">sample: LivMet_61</text>
</g>
<!-- 61&#45;&gt;0 -->
<g id="edge61" class="edge">
<title>61&#45;&gt;0</title>
<path fill="none" stroke="grey" stroke-width="2" d="M7035.48,-73.68C7032.46,-73.03 7029.45,-72.47 7026.5,-72 6712.69,-22.36 5680.11,-19.13 5470.73,-18.99"/>
<polygon fill="grey" stroke="grey" stroke-width="2" points="5470.57,-15.49 5460.56,-18.99 5470.56,-22.49 5470.57,-15.49"/>
</g>
<!-- 62 -->
<g id="node63" class="node">
<title>62</title>
<path fill="none" stroke="#d85656" stroke-width="2" d="M7241.5,-108C7241.5,-108 7165.5,-108 7165.5,-108 7159.5,-108 7153.5,-102 7153.5,-96 7153.5,-96 7153.5,-84 7153.5,-84 7153.5,-78 7159.5,-72 7165.5,-72 7165.5,-72 7241.5,-72 7241.5,-72 7247.5,-72 7253.5,-78 7253.5,-84 7253.5,-84 7253.5,-96 7253.5,-96 7253.5,-102 7247.5,-108 7241.5,-108"/>
<text text-anchor="middle" x="7203.5" y="-93" font-family="sans" font-size="10.00">hill_div</text>
<text text-anchor="middle" x="7203.5" y="-82" font-family="sans" font-size="10.00">sample: LivMet_62</text>
</g>
<!-- 62&#45;&gt;0 -->
<g id="edge62" class="edge">
<title>62&#45;&gt;0</title>
<path fill="none" stroke="grey" stroke-width="2" d="M7153.48,-73.67C7150.46,-73.03 7147.45,-72.46 7144.5,-72 6806.16,-18.87 5690.13,-18.45 5471.02,-18.89"/>
<polygon fill="grey" stroke="grey" stroke-width="2" points="5470.69,-15.39 5460.7,-18.91 5470.71,-22.39 5470.69,-15.39"/>
</g>
<!-- 63 -->
<g id="node64" class="node">
<title>63</title>
<path fill="none" stroke="#d85656" stroke-width="2" d="M7359.5,-108C7359.5,-108 7283.5,-108 7283.5,-108 7277.5,-108 7271.5,-102 7271.5,-96 7271.5,-96 7271.5,-84 7271.5,-84 7271.5,-78 7277.5,-72 7283.5,-72 7283.5,-72 7359.5,-72 7359.5,-72 7365.5,-72 7371.5,-78 7371.5,-84 7371.5,-84 7371.5,-96 7371.5,-96 7371.5,-102 7365.5,-108 7359.5,-108"/>
<text text-anchor="middle" x="7321.5" y="-93" font-family="sans" font-size="10.00">hill_div</text>
<text text-anchor="middle" x="7321.5" y="-82" font-family="sans" font-size="10.00">sample: LivMet_63</text>
</g>
<!-- 63&#45;&gt;0 -->
<g id="edge63" class="edge">
<title>63&#45;&gt;0</title>
<path fill="none" stroke="grey" stroke-width="2" d="M7271.48,-73.66C7268.46,-73.02 7265.45,-72.46 7262.5,-72 6899.27,-15.34 5697.8,-17.81 5470.71,-18.81"/>
<polygon fill="grey" stroke="grey" stroke-width="2" points="5470.62,-15.31 5460.64,-18.85 5470.66,-22.31 5470.62,-15.31"/>
</g>
<!-- 64 -->
<g id="node65" class="node">
<title>64</title>
<path fill="none" stroke="#d85656" stroke-width="2" d="M7477.5,-108C7477.5,-108 7401.5,-108 7401.5,-108 7395.5,-108 7389.5,-102 7389.5,-96 7389.5,-96 7389.5,-84 7389.5,-84 7389.5,-78 7395.5,-72 7401.5,-72 7401.5,-72 7477.5,-72 7477.5,-72 7483.5,-72 7489.5,-78 7489.5,-84 7489.5,-84 7489.5,-96 7489.5,-96 7489.5,-102 7483.5,-108 7477.5,-108"/>
<text text-anchor="middle" x="7439.5" y="-93" font-family="sans" font-size="10.00">hill_div</text>
<text text-anchor="middle" x="7439.5" y="-82" font-family="sans" font-size="10.00">sample: LivMet_64</text>
</g>
<!-- 64&#45;&gt;0 -->
<g id="edge64" class="edge">
<title>64&#45;&gt;0</title>
<path fill="none" stroke="grey" stroke-width="2" d="M7389.48,-73.65C7386.46,-73.02 7383.45,-72.46 7380.5,-72 7185.32,-41.73 5724.62,-22.57 5470.99,-19.45"/>
<polygon fill="grey" stroke="grey" stroke-width="2" points="5470.85,-15.95 5460.81,-19.33 5470.77,-22.95 5470.85,-15.95"/>
</g>
<!-- 65 -->
<g id="node66" class="node">
<title>65</title>
<path fill="none" stroke="#d85656" stroke-width="2" d="M7595.5,-108C7595.5,-108 7519.5,-108 7519.5,-108 7513.5,-108 7507.5,-102 7507.5,-96 7507.5,-96 7507.5,-84 7507.5,-84 7507.5,-78 7513.5,-72 7519.5,-72 7519.5,-72 7595.5,-72 7595.5,-72 7601.5,-72 7607.5,-78 7607.5,-84 7607.5,-84 7607.5,-96 7607.5,-96 7607.5,-102 7601.5,-108 7595.5,-108"/>
<text text-anchor="middle" x="7557.5" y="-93" font-family="sans" font-size="10.00">hill_div</text>
<text text-anchor="middle" x="7557.5" y="-82" font-family="sans" font-size="10.00">sample: LivMet_65</text>
</g>
<!-- 65&#45;&gt;0 -->
<g id="edge65" class="edge">
<title>65&#45;&gt;0</title>
<path fill="none" stroke="grey" stroke-width="2" d="M7507.48,-73.65C7504.46,-73.01 7501.45,-72.46 7498.5,-72 7290.82,-39.95 5732.54,-22.16 5470.77,-19.38"/>
<polygon fill="grey" stroke="grey" stroke-width="2" points="5470.67,-15.88 5460.63,-19.28 5470.6,-22.88 5470.67,-15.88"/>
</g>
<!-- 66 -->
<g id="node67" class="node">
<title>66</title>
<path fill="none" stroke="#d85656" stroke-width="2" d="M7713.5,-108C7713.5,-108 7637.5,-108 7637.5,-108 7631.5,-108 7625.5,-102 7625.5,-96 7625.5,-96 7625.5,-84 7625.5,-84 7625.5,-78 7631.5,-72 7637.5,-72 7637.5,-72 7713.5,-72 7713.5,-72 7719.5,-72 7725.5,-78 7725.5,-84 7725.5,-84 7725.5,-96 7725.5,-96 7725.5,-102 7719.5,-108 7713.5,-108"/>
<text text-anchor="middle" x="7675.5" y="-93" font-family="sans" font-size="10.00">hill_div</text>
<text text-anchor="middle" x="7675.5" y="-82" font-family="sans" font-size="10.00">sample: LivMet_66</text>
</g>
<!-- 66&#45;&gt;0 -->
<g id="edge66" class="edge">
<title>66&#45;&gt;0</title>
<path fill="none" stroke="grey" stroke-width="2" d="M7625.48,-73.64C7622.46,-73.01 7619.45,-72.45 7616.5,-72 7396.37,-38.19 5741.04,-21.79 5470.76,-19.33"/>
<polygon fill="grey" stroke="grey" stroke-width="2" points="5470.71,-15.83 5460.68,-19.24 5470.65,-22.83 5470.71,-15.83"/>
</g>
<!-- 67 -->
<g id="node68" class="node">
<title>67</title>
<path fill="none" stroke="#d85656" stroke-width="2" d="M7831.5,-108C7831.5,-108 7755.5,-108 7755.5,-108 7749.5,-108 7743.5,-102 7743.5,-96 7743.5,-96 7743.5,-84 7743.5,-84 7743.5,-78 7749.5,-72 7755.5,-72 7755.5,-72 7831.5,-72 7831.5,-72 7837.5,-72 7843.5,-78 7843.5,-84 7843.5,-84 7843.5,-96 7843.5,-96 7843.5,-102 7837.5,-108 7831.5,-108"/>
<text text-anchor="middle" x="7793.5" y="-93" font-family="sans" font-size="10.00">hill_div</text>
<text text-anchor="middle" x="7793.5" y="-82" font-family="sans" font-size="10.00">sample: LivMet_67</text>
</g>
<!-- 67&#45;&gt;0 -->
<g id="edge67" class="edge">
<title>67&#45;&gt;0</title>
<path fill="none" stroke="grey" stroke-width="2" d="M7743.48,-73.64C7740.46,-73.01 7737.45,-72.45 7734.5,-72 7501.97,-36.43 5750.33,-21.45 5471,-19.28"/>
<polygon fill="grey" stroke="grey" stroke-width="2" points="5470.63,-15.78 5460.6,-19.2 5470.58,-22.78 5470.63,-15.78"/>
</g>
<!-- 68 -->
<g id="node69" class="node">
<title>68</title>
<path fill="none" stroke="#d85656" stroke-width="2" d="M7949.5,-108C7949.5,-108 7873.5,-108 7873.5,-108 7867.5,-108 7861.5,-102 7861.5,-96 7861.5,-96 7861.5,-84 7861.5,-84 7861.5,-78 7867.5,-72 7873.5,-72 7873.5,-72 7949.5,-72 7949.5,-72 7955.5,-72 7961.5,-78 7961.5,-84 7961.5,-84 7961.5,-96 7961.5,-96 7961.5,-102 7955.5,-108 7949.5,-108"/>
<text text-anchor="middle" x="7911.5" y="-93" font-family="sans" font-size="10.00">hill_div</text>
<text text-anchor="middle" x="7911.5" y="-82" font-family="sans" font-size="10.00">sample: LivMet_68</text>
</g>
<!-- 68&#45;&gt;0 -->
<g id="edge68" class="edge">
<title>68&#45;&gt;0</title>
<path fill="none" stroke="grey" stroke-width="2" d="M7861.48,-73.64C7858.46,-73 7855.45,-72.45 7852.5,-72 7607.52,-34.67 5758.96,-21.13 5471.12,-19.24"/>
<polygon fill="grey" stroke="grey" stroke-width="2" points="5470.83,-15.74 5460.8,-19.17 5470.78,-22.74 5470.83,-15.74"/>
</g>
<!-- 69 -->
<g id="node70" class="node">
<title>69</title>
<path fill="none" stroke="#d85656" stroke-width="2" d="M8067.5,-108C8067.5,-108 7991.5,-108 7991.5,-108 7985.5,-108 7979.5,-102 7979.5,-96 7979.5,-96 7979.5,-84 7979.5,-84 7979.5,-78 7985.5,-72 7991.5,-72 7991.5,-72 8067.5,-72 8067.5,-72 8073.5,-72 8079.5,-78 8079.5,-84 8079.5,-84 8079.5,-96 8079.5,-96 8079.5,-102 8073.5,-108 8067.5,-108"/>
<text text-anchor="middle" x="8029.5" y="-93" font-family="sans" font-size="10.00">hill_div</text>
<text text-anchor="middle" x="8029.5" y="-82" font-family="sans" font-size="10.00">sample: LivMet_69</text>
</g>
<!-- 69&#45;&gt;0 -->
<g id="edge69" class="edge">
<title>69&#45;&gt;0</title>
<path fill="none" stroke="grey" stroke-width="2" d="M7979.49,-73.63C7976.46,-73 7973.45,-72.45 7970.5,-72 7712.9,-32.88 5764.79,-20.8 5470.65,-19.19"/>
<polygon fill="grey" stroke="grey" stroke-width="2" points="5470.53,-15.69 5460.51,-19.14 5470.49,-22.69 5470.53,-15.69"/>
</g>
<!-- 70 -->
<g id="node71" class="node">
<title>70</title>
<path fill="none" stroke="#d85656" stroke-width="2" d="M8185.5,-108C8185.5,-108 8109.5,-108 8109.5,-108 8103.5,-108 8097.5,-102 8097.5,-96 8097.5,-96 8097.5,-84 8097.5,-84 8097.5,-78 8103.5,-72 8109.5,-72 8109.5,-72 8185.5,-72 8185.5,-72 8191.5,-72 8197.5,-78 8197.5,-84 8197.5,-84 8197.5,-96 8197.5,-96 8197.5,-102 8191.5,-108 8185.5,-108"/>
<text text-anchor="middle" x="8147.5" y="-93" font-family="sans" font-size="10.00">hill_div</text>
<text text-anchor="middle" x="8147.5" y="-82" font-family="sans" font-size="10.00">sample: LivMet_70</text>
</g>
<!-- 70&#45;&gt;0 -->
<g id="edge70" class="edge">
<title>70&#45;&gt;0</title>
<path fill="none" stroke="grey" stroke-width="2" d="M8097.49,-73.63C8094.46,-73 8091.45,-72.45 8088.5,-72 7818.48,-31.12 5773.8,-20.51 5470.94,-19.16"/>
<polygon fill="grey" stroke="grey" stroke-width="2" points="5470.54,-15.66 5460.52,-19.11 5470.51,-22.66 5470.54,-15.66"/>
</g>
<!-- 71 -->
<g id="node72" class="node">
<title>71</title>
<path fill="none" stroke="#d85656" stroke-width="2" d="M8303.5,-108C8303.5,-108 8227.5,-108 8227.5,-108 8221.5,-108 8215.5,-102 8215.5,-96 8215.5,-96 8215.5,-84 8215.5,-84 8215.5,-78 8221.5,-72 8227.5,-72 8227.5,-72 8303.5,-72 8303.5,-72 8309.5,-72 8315.5,-78 8315.5,-84 8315.5,-84 8315.5,-96 8315.5,-96 8315.5,-102 8309.5,-108 8303.5,-108"/>
<text text-anchor="middle" x="8265.5" y="-93" font-family="sans" font-size="10.00">hill_div</text>
<text text-anchor="middle" x="8265.5" y="-82" font-family="sans" font-size="10.00">sample: LivMet_71</text>
</g>
<!-- 71&#45;&gt;0 -->
<g id="edge71" class="edge">
<title>71&#45;&gt;0</title>
<path fill="none" stroke="grey" stroke-width="2" d="M8215.49,-73.63C8212.46,-73 8209.45,-72.45 8206.5,-72 7924.03,-29.36 5782.36,-20.23 5471.16,-19.12"/>
<polygon fill="grey" stroke="grey" stroke-width="2" points="5470.88,-15.62 5460.87,-19.09 5470.86,-22.62 5470.88,-15.62"/>
</g>
<!-- 72 -->
<g id="node73" class="node">
<title>72</title>
<path fill="none" stroke="#d85656" stroke-width="2" d="M8421.5,-108C8421.5,-108 8345.5,-108 8345.5,-108 8339.5,-108 8333.5,-102 8333.5,-96 8333.5,-96 8333.5,-84 8333.5,-84 8333.5,-78 8339.5,-72 8345.5,-72 8345.5,-72 8421.5,-72 8421.5,-72 8427.5,-72 8433.5,-78 8433.5,-84 8433.5,-84 8433.5,-96 8433.5,-96 8433.5,-102 8427.5,-108 8421.5,-108"/>
<text text-anchor="middle" x="8383.5" y="-93" font-family="sans" font-size="10.00">hill_div</text>
<text text-anchor="middle" x="8383.5" y="-82" font-family="sans" font-size="10.00">sample: LivMet_72</text>
</g>
<!-- 72&#45;&gt;0 -->
<g id="edge72" class="edge">
<title>72&#45;&gt;0</title>
<path fill="none" stroke="grey" stroke-width="2" d="M8333.49,-73.62C8330.46,-72.99 8327.45,-72.44 8324.5,-72 8029.39,-27.57 5788.01,-19.95 5470.79,-19.09"/>
<polygon fill="grey" stroke="grey" stroke-width="2" points="5470.74,-15.59 5460.73,-19.07 5470.72,-22.59 5470.74,-15.59"/>
</g>
<!-- 73 -->
<g id="node74" class="node">
<title>73</title>
<path fill="none" stroke="#d85656" stroke-width="2" d="M8539.5,-108C8539.5,-108 8463.5,-108 8463.5,-108 8457.5,-108 8451.5,-102 8451.5,-96 8451.5,-96 8451.5,-84 8451.5,-84 8451.5,-78 8457.5,-72 8463.5,-72 8463.5,-72 8539.5,-72 8539.5,-72 8545.5,-72 8551.5,-78 8551.5,-84 8551.5,-84 8551.5,-96 8551.5,-96 8551.5,-102 8545.5,-108 8539.5,-108"/>
<text text-anchor="middle" x="8501.5" y="-93" font-family="sans" font-size="10.00">hill_div</text>
<text text-anchor="middle" x="8501.5" y="-82" font-family="sans" font-size="10.00">sample: LivMet_73</text>
</g>
<!-- 73&#45;&gt;0 -->
<g id="edge73" class="edge">
<title>73&#45;&gt;0</title>
<path fill="none" stroke="grey" stroke-width="2" d="M8451.49,-73.62C8448.46,-72.99 8445.45,-72.44 8442.5,-72 8134.85,-25.8 5795.2,-19.69 5470.78,-19.06"/>
<polygon fill="grey" stroke="grey" stroke-width="2" points="5470.52,-15.56 5460.51,-19.04 5470.5,-22.56 5470.52,-15.56"/>
</g>
<!-- 74 -->
<g id="node75" class="node">
<title>74</title>
<path fill="none" stroke="#d85656" stroke-width="2" d="M8657.5,-108C8657.5,-108 8581.5,-108 8581.5,-108 8575.5,-108 8569.5,-102 8569.5,-96 8569.5,-96 8569.5,-84 8569.5,-84 8569.5,-78 8575.5,-72 8581.5,-72 8581.5,-72 8657.5,-72 8657.5,-72 8663.5,-72 8669.5,-78 8669.5,-84 8669.5,-84 8669.5,-96 8669.5,-96 8669.5,-102 8663.5,-108 8657.5,-108"/>
<text text-anchor="middle" x="8619.5" y="-93" font-family="sans" font-size="10.00">hill_div</text>
<text text-anchor="middle" x="8619.5" y="-82" font-family="sans" font-size="10.00">sample: LivMet_74</text>
</g>
<!-- 74&#45;&gt;0 -->
<g id="edge74" class="edge">
<title>74&#45;&gt;0</title>
<path fill="none" stroke="grey" stroke-width="2" d="M8569.49,-73.62C8566.46,-72.99 8563.45,-72.44 8560.5,-72 8240.29,-24.02 5801.92,-19.44 5470.71,-19.04"/>
<polygon fill="grey" stroke="grey" stroke-width="2" points="5470.67,-15.54 5460.67,-19.02 5470.66,-22.54 5470.67,-15.54"/>
</g>
<!-- 75 -->
<g id="node76" class="node">
<title>75</title>
<path fill="none" stroke="#d85656" stroke-width="2" d="M8775.5,-108C8775.5,-108 8699.5,-108 8699.5,-108 8693.5,-108 8687.5,-102 8687.5,-96 8687.5,-96 8687.5,-84 8687.5,-84 8687.5,-78 8693.5,-72 8699.5,-72 8699.5,-72 8775.5,-72 8775.5,-72 8781.5,-72 8787.5,-78 8787.5,-84 8787.5,-84 8787.5,-96 8787.5,-96 8787.5,-102 8781.5,-108 8775.5,-108"/>
<text text-anchor="middle" x="8737.5" y="-93" font-family="sans" font-size="10.00">hill_div</text>
<text text-anchor="middle" x="8737.5" y="-82" font-family="sans" font-size="10.00">sample: LivMet_75</text>
</g>
<!-- 75&#45;&gt;0 -->
<g id="edge75" class="edge">
<title>75&#45;&gt;0</title>
<path fill="none" stroke="grey" stroke-width="2" d="M8687.49,-73.62C8684.46,-72.99 8681.45,-72.44 8678.5,-72 8345.77,-22.24 5809.32,-19.2 5470.8,-19.01"/>
<polygon fill="grey" stroke="grey" stroke-width="2" points="5470.77,-15.51 5460.77,-19.01 5470.77,-22.51 5470.77,-15.51"/>
</g>
<!-- 76 -->
<g id="node77" class="node">
<title>76</title>
<path fill="none" stroke="#d85656" stroke-width="2" d="M8893.5,-108C8893.5,-108 8817.5,-108 8817.5,-108 8811.5,-108 8805.5,-102 8805.5,-96 8805.5,-96 8805.5,-84 8805.5,-84 8805.5,-78 8811.5,-72 8817.5,-72 8817.5,-72 8893.5,-72 8893.5,-72 8899.5,-72 8905.5,-78 8905.5,-84 8905.5,-84 8905.5,-96 8905.5,-96 8905.5,-102 8899.5,-108 8893.5,-108"/>
<text text-anchor="middle" x="8855.5" y="-93" font-family="sans" font-size="10.00">hill_div</text>
<text text-anchor="middle" x="8855.5" y="-82" font-family="sans" font-size="10.00">sample: LivMet_76</text>
</g>
<!-- 76&#45;&gt;0 -->
<g id="edge76" class="edge">
<title>76&#45;&gt;0</title>
<path fill="none" stroke="grey" stroke-width="2" d="M8805.49,-73.61C8802.46,-72.99 8799.45,-72.44 8796.5,-72 8451.3,-20.48 5817.54,-18.96 5471.07,-18.99"/>
<polygon fill="grey" stroke="grey" stroke-width="2" points="5470.82,-15.49 5460.82,-18.99 5470.82,-22.49 5470.82,-15.49"/>
</g>
<!-- 77 -->
<g id="node78" class="node">
<title>77</title>
<path fill="none" stroke="#d85656" stroke-width="2" d="M9011.5,-108C9011.5,-108 8935.5,-108 8935.5,-108 8929.5,-108 8923.5,-102 8923.5,-96 8923.5,-96 8923.5,-84 8923.5,-84 8923.5,-78 8929.5,-72 8935.5,-72 8935.5,-72 9011.5,-72 9011.5,-72 9017.5,-72 9023.5,-78 9023.5,-84 9023.5,-84 9023.5,-96 9023.5,-96 9023.5,-102 9017.5,-108 9011.5,-108"/>
<text text-anchor="middle" x="8973.5" y="-93" font-family="sans" font-size="10.00">hill_div</text>
<text text-anchor="middle" x="8973.5" y="-82" font-family="sans" font-size="10.00">sample: LivMet_77</text>
</g>
<!-- 77&#45;&gt;0 -->
<g id="edge77" class="edge">
<title>77&#45;&gt;0</title>
<path fill="none" stroke="grey" stroke-width="2" d="M8923.49,-73.61C8920.46,-72.99 8917.45,-72.44 8914.5,-72 8556.72,-18.7 5824.02,-18.74 5471.02,-18.97"/>
<polygon fill="grey" stroke="grey" stroke-width="2" points="5470.82,-15.47 5460.82,-18.97 5470.82,-22.47 5470.82,-15.47"/>
</g>
<!-- 78 -->
<g id="node79" class="node">
<title>78</title>
<path fill="none" stroke="#d85656" stroke-width="2" d="M9129.5,-108C9129.5,-108 9053.5,-108 9053.5,-108 9047.5,-108 9041.5,-102 9041.5,-96 9041.5,-96 9041.5,-84 9041.5,-84 9041.5,-78 9047.5,-72 9053.5,-72 9053.5,-72 9129.5,-72 9129.5,-72 9135.5,-72 9141.5,-78 9141.5,-84 9141.5,-84 9141.5,-96 9141.5,-96 9141.5,-102 9135.5,-108 9129.5,-108"/>
<text text-anchor="middle" x="9091.5" y="-93" font-family="sans" font-size="10.00">hill_div</text>
<text text-anchor="middle" x="9091.5" y="-82" font-family="sans" font-size="10.00">sample: LivMet_78</text>
</g>
<!-- 78&#45;&gt;0 -->
<g id="edge78" class="edge">
<title>78&#45;&gt;0</title>
<path fill="none" stroke="grey" stroke-width="2" d="M9041.49,-73.61C9038.46,-72.99 9035.45,-72.44 9032.5,-72 8662.1,-16.92 5830.02,-18.52 5470.9,-18.95"/>
<polygon fill="grey" stroke="grey" stroke-width="2" points="5470.77,-15.45 5460.77,-18.96 5470.78,-22.45 5470.77,-15.45"/>
</g>
<!-- 79 -->
<g id="node80" class="node">
<title>79</title>
<path fill="none" stroke="#d85656" stroke-width="2" d="M9247.5,-108C9247.5,-108 9171.5,-108 9171.5,-108 9165.5,-108 9159.5,-102 9159.5,-96 9159.5,-96 9159.5,-84 9159.5,-84 9159.5,-78 9165.5,-72 9171.5,-72 9171.5,-72 9247.5,-72 9247.5,-72 9253.5,-72 9259.5,-78 9259.5,-84 9259.5,-84 9259.5,-96 9259.5,-96 9259.5,-102 9253.5,-108 9247.5,-108"/>
<text text-anchor="middle" x="9209.5" y="-93" font-family="sans" font-size="10.00">hill_div</text>
<text text-anchor="middle" x="9209.5" y="-82" font-family="sans" font-size="10.00">sample: LivMet_79</text>
</g>
<!-- 79&#45;&gt;0 -->
<g id="edge79" class="edge">
<title>79&#45;&gt;0</title>
<path fill="none" stroke="grey" stroke-width="2" d="M9159.49,-73.61C9156.46,-72.98 9153.45,-72.44 9150.5,-72 8767.46,-15.13 5835.53,-18.31 5470.72,-18.93"/>
<polygon fill="grey" stroke="grey" stroke-width="2" points="5470.67,-15.43 5460.68,-18.95 5470.69,-22.43 5470.67,-15.43"/>
</g>
<!-- 80 -->
<g id="node81" class="node">
<title>80</title>
<path fill="none" stroke="#d85656" stroke-width="2" d="M9365.5,-108C9365.5,-108 9289.5,-108 9289.5,-108 9283.5,-108 9277.5,-102 9277.5,-96 9277.5,-96 9277.5,-84 9277.5,-84 9277.5,-78 9283.5,-72 9289.5,-72 9289.5,-72 9365.5,-72 9365.5,-72 9371.5,-72 9377.5,-78 9377.5,-84 9377.5,-84 9377.5,-96 9377.5,-96 9377.5,-102 9371.5,-108 9365.5,-108"/>
<text text-anchor="middle" x="9327.5" y="-93" font-family="sans" font-size="10.00">hill_div</text>
<text text-anchor="middle" x="9327.5" y="-82" font-family="sans" font-size="10.00">sample: LivMet_80</text>
</g>
<!-- 80&#45;&gt;0 -->
<g id="edge80" class="edge">
<title>80&#45;&gt;0</title>
<path fill="none" stroke="grey" stroke-width="2" d="M9277.49,-73.61C9274.46,-72.98 9271.45,-72.44 9268.5,-72 8872.88,-13.35 5842.05,-18.1 5470.74,-18.91"/>
<polygon fill="grey" stroke="grey" stroke-width="2" points="5470.53,-15.41 5460.54,-18.93 5470.55,-22.41 5470.53,-15.41"/>
</g>
<!-- 81 -->
<g id="node82" class="node">
<title>81</title>
<path fill="none" stroke="#d85656" stroke-width="2" d="M9483.5,-108C9483.5,-108 9407.5,-108 9407.5,-108 9401.5,-108 9395.5,-102 9395.5,-96 9395.5,-96 9395.5,-84 9395.5,-84 9395.5,-78 9401.5,-72 9407.5,-72 9407.5,-72 9483.5,-72 9483.5,-72 9489.5,-72 9495.5,-78 9495.5,-84 9495.5,-84 9495.5,-96 9495.5,-96 9495.5,-102 9489.5,-108 9483.5,-108"/>
<text text-anchor="middle" x="9445.5" y="-93" font-family="sans" font-size="10.00">hill_div</text>
<text text-anchor="middle" x="9445.5" y="-82" font-family="sans" font-size="10.00">sample: LivMet_81</text>
</g>
<!-- 81&#45;&gt;0 -->
<g id="edge81" class="edge">
<title>81&#45;&gt;0</title>
<path fill="none" stroke="grey" stroke-width="2" d="M9395.49,-73.61C9392.47,-72.98 9389.45,-72.44 9386.5,-72 8978.28,-11.57 5848.24,-17.91 5470.73,-18.89"/>
<polygon fill="grey" stroke="grey" stroke-width="2" points="5470.6,-15.39 5460.61,-18.92 5470.62,-22.39 5470.6,-15.39"/>
</g>
<!-- 82 -->
<g id="node83" class="node">
<title>82</title>
<path fill="none" stroke="#d85656" stroke-width="2" d="M9601.5,-108C9601.5,-108 9525.5,-108 9525.5,-108 9519.5,-108 9513.5,-102 9513.5,-96 9513.5,-96 9513.5,-84 9513.5,-84 9513.5,-78 9519.5,-72 9525.5,-72 9525.5,-72 9601.5,-72 9601.5,-72 9607.5,-72 9613.5,-78 9613.5,-84 9613.5,-84 9613.5,-96 9613.5,-96 9613.5,-102 9607.5,-108 9601.5,-108"/>
<text text-anchor="middle" x="9563.5" y="-93" font-family="sans" font-size="10.00">hill_div</text>
<text text-anchor="middle" x="9563.5" y="-82" font-family="sans" font-size="10.00">sample: LivMet_82</text>
</g>
<!-- 82&#45;&gt;0 -->
<g id="edge82" class="edge">
<title>82&#45;&gt;0</title>
<path fill="none" stroke="grey" stroke-width="2" d="M9513.49,-73.6C9510.47,-72.98 9507.45,-72.44 9504.5,-72 9293.7,-40.84 5866.89,-21.35 5470.75,-19.2"/>
<polygon fill="grey" stroke="grey" stroke-width="2" points="5470.69,-15.7 5460.67,-19.14 5470.66,-22.7 5470.69,-15.7"/>
</g>
<!-- 83 -->
<g id="node84" class="node">
<title>83</title>
<path fill="none" stroke="#d85656" stroke-width="2" d="M9719.5,-108C9719.5,-108 9643.5,-108 9643.5,-108 9637.5,-108 9631.5,-102 9631.5,-96 9631.5,-96 9631.5,-84 9631.5,-84 9631.5,-78 9637.5,-72 9643.5,-72 9643.5,-72 9719.5,-72 9719.5,-72 9725.5,-72 9731.5,-78 9731.5,-84 9731.5,-84 9731.5,-96 9731.5,-96 9731.5,-102 9725.5,-108 9719.5,-108"/>
<text text-anchor="middle" x="9681.5" y="-93" font-family="sans" font-size="10.00">hill_div</text>
<text text-anchor="middle" x="9681.5" y="-82" font-family="sans" font-size="10.00">sample: LivMet_83</text>
</g>
<!-- 83&#45;&gt;0 -->
<g id="edge83" class="edge">
<title>83&#45;&gt;0</title>
<path fill="none" stroke="grey" stroke-width="2" d="M9631.49,-73.6C9628.47,-72.98 9625.45,-72.44 9622.5,-72 9405.42,-39.95 5874.02,-21.22 5470.89,-19.19"/>
<polygon fill="grey" stroke="grey" stroke-width="2" points="5470.67,-15.68 5460.65,-19.13 5470.63,-22.68 5470.67,-15.68"/>
</g>
<!-- 84 -->
<g id="node85" class="node">
<title>84</title>
<path fill="none" stroke="#d85656" stroke-width="2" d="M9837.5,-108C9837.5,-108 9761.5,-108 9761.5,-108 9755.5,-108 9749.5,-102 9749.5,-96 9749.5,-96 9749.5,-84 9749.5,-84 9749.5,-78 9755.5,-72 9761.5,-72 9761.5,-72 9837.5,-72 9837.5,-72 9843.5,-72 9849.5,-78 9849.5,-84 9849.5,-84 9849.5,-96 9849.5,-96 9849.5,-102 9843.5,-108 9837.5,-108"/>
<text text-anchor="middle" x="9799.5" y="-93" font-family="sans" font-size="10.00">hill_div</text>
<text text-anchor="middle" x="9799.5" y="-82" font-family="sans" font-size="10.00">sample: LivMet_84</text>
</g>
<!-- 84&#45;&gt;0 -->
<g id="edge84" class="edge">
<title>84&#45;&gt;0</title>
<path fill="none" stroke="grey" stroke-width="2" d="M9749.49,-73.6C9746.47,-72.98 9743.45,-72.44 9740.5,-72 9517.07,-39.05 5879.04,-21.09 5470.69,-19.17"/>
<polygon fill="grey" stroke="grey" stroke-width="2" points="5470.61,-15.67 5460.59,-19.12 5470.58,-22.67 5470.61,-15.67"/>
</g>
<!-- 85 -->
<g id="node86" class="node">
<title>85</title>
<path fill="none" stroke="#d85656" stroke-width="2" d="M9955.5,-108C9955.5,-108 9879.5,-108 9879.5,-108 9873.5,-108 9867.5,-102 9867.5,-96 9867.5,-96 9867.5,-84 9867.5,-84 9867.5,-78 9873.5,-72 9879.5,-72 9879.5,-72 9955.5,-72 9955.5,-72 9961.5,-72 9967.5,-78 9967.5,-84 9967.5,-84 9967.5,-96 9967.5,-96 9967.5,-102 9961.5,-108 9955.5,-108"/>
<text text-anchor="middle" x="9917.5" y="-93" font-family="sans" font-size="10.00">hill_div</text>
<text text-anchor="middle" x="9917.5" y="-82" font-family="sans" font-size="10.00">sample: LivMet_85</text>
</g>
<!-- 85&#45;&gt;0 -->
<g id="edge85" class="edge">
<title>85&#45;&gt;0</title>
<path fill="none" stroke="grey" stroke-width="2" d="M9867.49,-73.6C9864.47,-72.98 9861.45,-72.43 9858.5,-72 9628.77,-38.16 5885.5,-20.96 5470.75,-19.16"/>
<polygon fill="grey" stroke="grey" stroke-width="2" points="5470.52,-15.66 5460.5,-19.11 5470.49,-22.66 5470.52,-15.66"/>
</g>
<!-- 86 -->
<g id="node87" class="node">
<title>86</title>
<path fill="none" stroke="#d85656" stroke-width="2" d="M10073.5,-108C10073.5,-108 9997.5,-108 9997.5,-108 9991.5,-108 9985.5,-102 9985.5,-96 9985.5,-96 9985.5,-84 9985.5,-84 9985.5,-78 9991.5,-72 9997.5,-72 9997.5,-72 10073.5,-72 10073.5,-72 10079.5,-72 10085.5,-78 10085.5,-84 10085.5,-84 10085.5,-96 10085.5,-96 10085.5,-102 10079.5,-108 10073.5,-108"/>
<text text-anchor="middle" x="10035.5" y="-93" font-family="sans" font-size="10.00">hill_div</text>
<text text-anchor="middle" x="10035.5" y="-82" font-family="sans" font-size="10.00">sample: LivMet_86</text>
</g>
<!-- 86&#45;&gt;0 -->
<g id="edge86" class="edge">
<title>86&#45;&gt;0</title>
<path fill="none" stroke="grey" stroke-width="2" d="M9985.49,-73.6C9982.47,-72.98 9979.45,-72.43 9976.5,-72 9740.46,-37.27 5891.72,-20.84 5470.78,-19.15"/>
<polygon fill="grey" stroke="grey" stroke-width="2" points="5470.68,-15.65 5460.66,-19.11 5470.65,-22.65 5470.68,-15.65"/>
</g>
<!-- 87 -->
<g id="node88" class="node">
<title>87</title>
<path fill="none" stroke="#d85656" stroke-width="2" d="M10191.5,-108C10191.5,-108 10115.5,-108 10115.5,-108 10109.5,-108 10103.5,-102 10103.5,-96 10103.5,-96 10103.5,-84 10103.5,-84 10103.5,-78 10109.5,-72 10115.5,-72 10115.5,-72 10191.5,-72 10191.5,-72 10197.5,-72 10203.5,-78 10203.5,-84 10203.5,-84 10203.5,-96 10203.5,-96 10203.5,-102 10197.5,-108 10191.5,-108"/>
<text text-anchor="middle" x="10153.5" y="-93" font-family="sans" font-size="10.00">hill_div</text>
<text text-anchor="middle" x="10153.5" y="-82" font-family="sans" font-size="10.00">sample: LivMet_87</text>
</g>
<!-- 87&#45;&gt;0 -->
<g id="edge87" class="edge">
<title>87&#45;&gt;0</title>
<path fill="none" stroke="grey" stroke-width="2" d="M10103.49,-73.6C10100.47,-72.98 10097.45,-72.43 10094.5,-72 9852.14,-36.37 5897.55,-20.72 5470.76,-19.14"/>
<polygon fill="grey" stroke="grey" stroke-width="2" points="5470.52,-15.63 5460.51,-19.1 5470.5,-22.63 5470.52,-15.63"/>
</g>
<!-- 88 -->
<g id="node89" class="node">
<title>88</title>
<path fill="none" stroke="#d85656" stroke-width="2" d="M10309.5,-108C10309.5,-108 10233.5,-108 10233.5,-108 10227.5,-108 10221.5,-102 10221.5,-96 10221.5,-96 10221.5,-84 10221.5,-84 10221.5,-78 10227.5,-72 10233.5,-72 10233.5,-72 10309.5,-72 10309.5,-72 10315.5,-72 10321.5,-78 10321.5,-84 10321.5,-84 10321.5,-96 10321.5,-96 10321.5,-102 10315.5,-108 10309.5,-108"/>
<text text-anchor="middle" x="10271.5" y="-93" font-family="sans" font-size="10.00">hill_div</text>
<text text-anchor="middle" x="10271.5" y="-82" font-family="sans" font-size="10.00">sample: LivMet_88</text>
</g>
<!-- 88&#45;&gt;0 -->
<g id="edge88" class="edge">
<title>88&#45;&gt;0</title>
<path fill="none" stroke="grey" stroke-width="2" d="M10221.49,-73.6C10218.47,-72.98 10215.45,-72.43 10212.5,-72 9963.81,-35.48 5903.15,-20.61 5470.71,-19.12"/>
<polygon fill="grey" stroke="grey" stroke-width="2" points="5470.63,-15.62 5460.62,-19.09 5470.61,-22.62 5470.63,-15.62"/>
</g>
<!-- 89 -->
<g id="node90" class="node">
<title>89</title>
<path fill="none" stroke="#d85656" stroke-width="2" d="M10427.5,-108C10427.5,-108 10351.5,-108 10351.5,-108 10345.5,-108 10339.5,-102 10339.5,-96 10339.5,-96 10339.5,-84 10339.5,-84 10339.5,-78 10345.5,-72 10351.5,-72 10351.5,-72 10427.5,-72 10427.5,-72 10433.5,-72 10439.5,-78 10439.5,-84 10439.5,-84 10439.5,-96 10439.5,-96 10439.5,-102 10433.5,-108 10427.5,-108"/>
<text text-anchor="middle" x="10389.5" y="-93" font-family="sans" font-size="10.00">hill_div</text>
<text text-anchor="middle" x="10389.5" y="-82" font-family="sans" font-size="10.00">sample: LivMet_89</text>
</g>
<!-- 89&#45;&gt;0 -->
<g id="edge89" class="edge">
<title>89&#45;&gt;0</title>
<path fill="none" stroke="grey" stroke-width="2" d="M10339.49,-73.6C10336.47,-72.98 10333.45,-72.43 10330.5,-72 10075.54,-34.59 5910.48,-20.5 5470.95,-19.12"/>
<polygon fill="grey" stroke="grey" stroke-width="2" points="5470.71,-15.61 5460.7,-19.08 5470.69,-22.61 5470.71,-15.61"/>
</g>
<!-- 90 -->
<g id="node91" class="node">
<title>90</title>
<path fill="none" stroke="#d85656" stroke-width="2" d="M10545.5,-108C10545.5,-108 10469.5,-108 10469.5,-108 10463.5,-108 10457.5,-102 10457.5,-96 10457.5,-96 10457.5,-84 10457.5,-84 10457.5,-78 10463.5,-72 10469.5,-72 10469.5,-72 10545.5,-72 10545.5,-72 10551.5,-72 10557.5,-78 10557.5,-84 10557.5,-84 10557.5,-96 10557.5,-96 10557.5,-102 10551.5,-108 10545.5,-108"/>
<text text-anchor="middle" x="10507.5" y="-93" font-family="sans" font-size="10.00">hill_div</text>
<text text-anchor="middle" x="10507.5" y="-82" font-family="sans" font-size="10.00">sample: LivMet_90</text>
</g>
<!-- 90&#45;&gt;0 -->
<g id="edge90" class="edge">
<title>90&#45;&gt;0</title>
<path fill="none" stroke="grey" stroke-width="2" d="M10457.49,-73.6C10454.47,-72.97 10451.45,-72.43 10448.5,-72 10187.19,-33.7 5915.51,-20.39 5470.84,-19.1"/>
<polygon fill="grey" stroke="grey" stroke-width="2" points="5470.77,-15.6 5460.76,-19.08 5470.75,-22.6 5470.77,-15.6"/>
</g>
<!-- 91 -->
<g id="node92" class="node">
<title>91</title>
<path fill="none" stroke="#d85656" stroke-width="2" d="M10663.5,-108C10663.5,-108 10587.5,-108 10587.5,-108 10581.5,-108 10575.5,-102 10575.5,-96 10575.5,-96 10575.5,-84 10575.5,-84 10575.5,-78 10581.5,-72 10587.5,-72 10587.5,-72 10663.5,-72 10663.5,-72 10669.5,-72 10675.5,-78 10675.5,-84 10675.5,-84 10675.5,-96 10675.5,-96 10675.5,-102 10669.5,-108 10663.5,-108"/>
<text text-anchor="middle" x="10625.5" y="-93" font-family="sans" font-size="10.00">hill_div</text>
<text text-anchor="middle" x="10625.5" y="-82" font-family="sans" font-size="10.00">sample: LivMet_91</text>
</g>
<!-- 91&#45;&gt;0 -->
<g id="edge91" class="edge">
<title>91&#45;&gt;0</title>
<path fill="none" stroke="grey" stroke-width="2" d="M10575.49,-73.59C10572.47,-72.97 10569.45,-72.43 10566.5,-72 10298.83,-32.8 5920.15,-20.28 5470.68,-19.09"/>
<polygon fill="grey" stroke="grey" stroke-width="2" points="5470.52,-15.59 5460.51,-19.07 5470.5,-22.59 5470.52,-15.59"/>
</g>
<!-- 92 -->
<g id="node93" class="node">
<title>92</title>
<path fill="none" stroke="#d85656" stroke-width="2" d="M10781.5,-108C10781.5,-108 10705.5,-108 10705.5,-108 10699.5,-108 10693.5,-102 10693.5,-96 10693.5,-96 10693.5,-84 10693.5,-84 10693.5,-78 10699.5,-72 10705.5,-72 10705.5,-72 10781.5,-72 10781.5,-72 10787.5,-72 10793.5,-78 10793.5,-84 10793.5,-84 10793.5,-96 10793.5,-96 10793.5,-102 10787.5,-108 10781.5,-108"/>
<text text-anchor="middle" x="10743.5" y="-93" font-family="sans" font-size="10.00">hill_div</text>
<text text-anchor="middle" x="10743.5" y="-82" font-family="sans" font-size="10.00">sample: LivMet_92</text>
</g>
<!-- 92&#45;&gt;0 -->
<g id="edge92" class="edge">
<title>92&#45;&gt;0</title>
<path fill="none" stroke="grey" stroke-width="2" d="M10693.49,-73.59C10690.47,-72.97 10687.45,-72.43 10684.5,-72 10410.54,-31.91 5926.76,-20.18 5470.83,-19.09"/>
<polygon fill="grey" stroke="grey" stroke-width="2" points="5470.53,-15.59 5460.52,-19.06 5470.51,-22.59 5470.53,-15.59"/>
</g>
<!-- 93 -->
<g id="node94" class="node">
<title>93</title>
<path fill="none" stroke="#d85656" stroke-width="2" d="M10899.5,-108C10899.5,-108 10823.5,-108 10823.5,-108 10817.5,-108 10811.5,-102 10811.5,-96 10811.5,-96 10811.5,-84 10811.5,-84 10811.5,-78 10817.5,-72 10823.5,-72 10823.5,-72 10899.5,-72 10899.5,-72 10905.5,-72 10911.5,-78 10911.5,-84 10911.5,-84 10911.5,-96 10911.5,-96 10911.5,-102 10905.5,-108 10899.5,-108"/>
<text text-anchor="middle" x="10861.5" y="-93" font-family="sans" font-size="10.00">hill_div</text>
<text text-anchor="middle" x="10861.5" y="-82" font-family="sans" font-size="10.00">sample: LivMet_93</text>
</g>
<!-- 93&#45;&gt;0 -->
<g id="edge93" class="edge">
<title>93&#45;&gt;0</title>
<path fill="none" stroke="grey" stroke-width="2" d="M10811.49,-73.59C10808.47,-72.97 10805.45,-72.43 10802.5,-72 10522.16,-31.01 5930.9,-20.07 5470.62,-19.08"/>
<polygon fill="grey" stroke="grey" stroke-width="2" points="5470.52,-15.58 5460.52,-19.06 5470.51,-22.58 5470.52,-15.58"/>
</g>
</g>
</svg>
